<svg width="252" height="105" viewBox="0 0 252 105" fill="none" xmlns="http://www.w3.org/2000/svg">
<g clip-path="url(#clip0_3_2)">
<rect width="252" height="105" fill="white"/>
<path d="M-6 0H273V105H-6V0Z" fill="#1E1E1E" fill-opacity="0.96"/>
<path d="M33.32 47V41.96H34.112V47H39.692V47.72H34.112V60.176C34.112 61.16 34.376 62 34.904 62.696C35.456 63.392 36.152 63.884 36.992 64.172C37.856 64.46 38.756 64.484 39.692 64.244V64.892C38.924 65.108 38.156 65.156 37.388 65.036C36.644 64.916 35.96 64.64 35.336 64.208C34.736 63.776 34.244 63.224 33.86 62.552C33.5 61.856 33.32 61.064 33.32 60.176V47.72H30.368V47H33.32ZM44.1898 39.08H44.9818V51.716C45.4138 50.06 46.2178 48.824 47.3938 48.008C48.5938 47.168 50.0218 46.748 51.6777 46.748C52.9978 46.748 54.1738 47.024 55.2058 47.576C56.2378 48.128 57.0538 49.004 57.6538 50.204C58.2538 51.404 58.5538 52.964 58.5538 54.884V65H57.7618V54.848C57.7618 52.472 57.2218 50.648 56.1418 49.376C55.0858 48.104 53.5858 47.468 51.6418 47.468C49.6258 47.468 48.0058 48.188 46.7818 49.628C45.5818 51.068 44.9818 53.18 44.9818 55.964V65H44.1898V39.08ZM71.3534 65.252C69.7214 65.252 68.2814 64.856 67.0334 64.064C65.8094 63.272 64.8494 62.168 64.1534 60.752C63.4574 59.336 63.1094 57.692 63.1094 55.82C63.1094 54.044 63.4574 52.472 64.1534 51.104C64.8734 49.736 65.8454 48.668 67.0694 47.9C68.3174 47.132 69.7454 46.748 71.3534 46.748C72.8894 46.748 74.2574 47.096 75.4574 47.792C76.6574 48.464 77.6054 49.388 78.3014 50.564C78.9974 51.716 79.3454 53.036 79.3454 54.524C79.3454 54.692 79.3454 54.908 79.3454 55.172C79.3694 55.436 79.3694 55.712 79.3454 56H63.9014C63.9254 57.68 64.2494 59.168 64.8734 60.464C65.5214 61.736 66.3974 62.732 67.5014 63.452C68.6294 64.172 69.9134 64.532 71.3534 64.532C73.0334 64.532 74.4854 64.148 75.7094 63.38C76.9574 62.612 77.8694 61.52 78.4454 60.104L79.0934 60.356C78.4934 61.916 77.5094 63.128 76.1414 63.992C74.7974 64.832 73.2014 65.252 71.3534 65.252ZM78.5534 55.28C78.6014 53.744 78.3254 52.388 77.7254 51.212C77.1494 50.036 76.3094 49.124 75.2054 48.476C74.1254 47.804 72.8414 47.468 71.3534 47.468C69.9614 47.468 68.7134 47.804 67.6094 48.476C66.5054 49.148 65.6174 50.072 64.9454 51.248C64.2974 52.424 63.9494 53.768 63.9014 55.28H78.5534ZM83.799 47H86.895L87.111 49.088C87.687 48.368 88.407 47.804 89.271 47.396C90.135 46.964 91.107 46.748 92.187 46.748C93.411 46.748 94.515 47.024 95.499 47.576C96.507 48.104 97.299 48.896 97.875 49.952C98.475 48.896 99.327 48.104 100.431 47.576C101.535 47.024 102.747 46.748 104.067 46.748C105.435 46.748 106.635 47.048 107.667 47.648C108.723 48.224 109.539 49.088 110.115 50.24C110.691 51.392 110.979 52.832 110.979 54.56V65H107.559V54.992C107.559 53.312 107.199 52.04 106.479 51.176C105.759 50.288 104.727 49.844 103.383 49.844C102.015 49.844 100.935 50.3 100.143 51.212C99.351 52.124 98.955 53.456 98.955 55.208V65H95.535V54.992C95.535 53.312 95.199 52.04 94.527 51.176C93.855 50.288 92.847 49.844 91.503 49.844C90.135 49.844 89.067 50.3 88.299 51.212C87.555 52.124 87.183 53.456 87.183 55.208V65H83.799V47ZM114.278 47H118.166L122.378 53.3L126.59 47H130.478L124.214 56L130.478 65H126.59L122.378 58.628L118.166 65H114.278L120.506 56L114.278 47ZM134.072 60.284C134.24 61.196 134.54 61.976 134.972 62.624C135.428 63.248 136.052 63.728 136.844 64.064C137.636 64.376 138.62 64.532 139.796 64.532C141.692 64.532 143.108 64.148 144.044 63.38C144.98 62.612 145.448 61.628 145.448 60.428C145.448 59.42 145.172 58.652 144.62 58.124C144.092 57.596 143.396 57.2 142.532 56.936C141.692 56.648 140.816 56.408 139.904 56.216C139.376 56.096 138.752 55.952 138.032 55.784C137.312 55.616 136.616 55.376 135.944 55.064C135.272 54.728 134.708 54.284 134.252 53.732C133.796 53.156 133.568 52.4 133.568 51.464C133.568 50.528 133.832 49.7 134.36 48.98C134.888 48.26 135.608 47.708 136.52 47.324C137.456 46.94 138.524 46.748 139.724 46.748C141.164 46.748 142.448 47.072 143.576 47.72C144.704 48.368 145.46 49.448 145.844 50.96L145.196 51.14C144.908 50.108 144.452 49.328 143.828 48.8C143.228 48.272 142.568 47.924 141.848 47.756C141.128 47.564 140.432 47.468 139.76 47.468C138.152 47.468 136.844 47.828 135.836 48.548C134.852 49.244 134.36 50.204 134.36 51.428C134.36 52.172 134.54 52.784 134.9 53.264C135.26 53.72 135.716 54.092 136.268 54.38C136.844 54.644 137.468 54.86 138.14 55.028C138.812 55.172 139.46 55.304 140.084 55.424C140.78 55.568 141.488 55.748 142.208 55.964C142.928 56.18 143.588 56.468 144.188 56.828C144.812 57.188 145.304 57.668 145.664 58.268C146.048 58.844 146.24 59.576 146.24 60.464C146.24 61.472 145.976 62.336 145.448 63.056C144.92 63.776 144.164 64.328 143.18 64.712C142.22 65.072 141.08 65.252 139.76 65.252C137.984 65.252 136.556 64.88 135.476 64.136C134.396 63.392 133.688 62.18 133.352 60.5L134.072 60.284ZM152.429 47V41.96H153.221V47H158.801V47.72H153.221V60.176C153.221 61.16 153.485 62 154.013 62.696C154.565 63.392 155.261 63.884 156.101 64.172C156.965 64.46 157.865 64.484 158.801 64.244V64.892C158.033 65.108 157.265 65.156 156.497 65.036C155.753 64.916 155.069 64.64 154.445 64.208C153.845 63.776 153.353 63.224 152.969 62.552C152.609 61.856 152.429 61.064 152.429 60.176V47.72H149.477V47H152.429ZM177.339 65H176.583L176.547 60.536C176.163 62.024 175.419 63.188 174.315 64.028C173.235 64.844 171.771 65.252 169.923 65.252C168.627 65.252 167.451 64.988 166.395 64.46C165.339 63.908 164.499 63.044 163.875 61.868C163.275 60.692 162.975 59.18 162.975 57.332V47H163.767V57.404C163.767 59.78 164.295 61.568 165.351 62.768C166.431 63.944 167.955 64.532 169.923 64.532C171.963 64.532 173.571 63.872 174.747 62.552C175.947 61.232 176.547 59.18 176.547 56.396V47H177.339V65ZM198.167 52.256L198.131 52.364V39.08H198.923V65H198.131V59.78C197.675 61.34 196.799 62.648 195.503 63.704C194.207 64.736 192.575 65.252 190.607 65.252C188.927 65.252 187.451 64.88 186.179 64.136C184.931 63.368 183.959 62.288 183.263 60.896C182.567 59.504 182.219 57.872 182.219 56C182.219 54.128 182.567 52.508 183.263 51.14C183.959 49.748 184.931 48.668 186.179 47.9C187.451 47.132 188.927 46.748 190.607 46.748C192.695 46.748 194.375 47.276 195.647 48.332C196.919 49.388 197.759 50.696 198.167 52.256ZM183.011 56C183.011 58.616 183.695 60.692 185.063 62.228C186.431 63.764 188.279 64.532 190.607 64.532C192.119 64.532 193.439 64.172 194.567 63.452C195.695 62.732 196.571 61.736 197.195 60.464C197.819 59.168 198.131 57.68 198.131 56C198.131 54.32 197.819 52.844 197.195 51.572C196.595 50.276 195.731 49.268 194.603 48.548C193.475 47.828 192.143 47.468 190.607 47.468C188.279 47.468 186.431 48.236 185.063 49.772C183.695 51.308 183.011 53.384 183.011 56ZM205.496 47H206.288V65H205.496V47ZM205.892 42.14C205.676 42.14 205.484 42.068 205.316 41.924C205.172 41.78 205.1 41.588 205.1 41.348C205.1 41.084 205.172 40.88 205.316 40.736C205.484 40.592 205.676 40.52 205.892 40.52C206.108 40.52 206.288 40.592 206.432 40.736C206.6 40.88 206.684 41.084 206.684 41.348C206.684 41.588 206.6 41.78 206.432 41.924C206.288 42.068 206.108 42.14 205.892 42.14ZM220.214 65.252C218.558 65.252 217.082 64.88 215.786 64.136C214.49 63.392 213.458 62.336 212.69 60.968C211.946 59.576 211.574 57.92 211.574 56C211.574 54.104 211.946 52.46 212.69 51.068C213.458 49.676 214.49 48.608 215.786 47.864C217.082 47.12 218.558 46.748 220.214 46.748C221.87 46.748 223.334 47.12 224.606 47.864C225.902 48.608 226.922 49.676 227.666 51.068C228.41 52.46 228.782 54.104 228.782 56C228.782 57.92 228.41 59.576 227.666 60.968C226.922 62.336 225.902 63.392 224.606 64.136C223.334 64.88 221.87 65.252 220.214 65.252ZM220.214 64.532C221.558 64.532 222.818 64.232 223.994 63.632C225.194 63.008 226.154 62.072 226.874 60.824C227.618 59.552 227.99 57.944 227.99 56C227.99 54.056 227.618 52.46 226.874 51.212C226.154 49.94 225.194 49.004 223.994 48.404C222.818 47.78 221.558 47.468 220.214 47.468C218.87 47.468 217.598 47.78 216.398 48.404C215.222 49.004 214.262 49.94 213.518 51.212C212.774 52.46 212.402 54.056 212.402 56C212.402 57.944 212.774 59.552 213.518 60.824C214.262 62.072 215.222 63.008 216.398 63.632C217.598 64.232 218.87 64.532 220.214 64.532Z" fill="white"/>
</g>
<defs>
<clipPath id="clip0_3_2">
<rect width="252" height="105" fill="white"/>
</clipPath>
</defs>
</svg>
