<svg width="585" height="300" viewBox="0 0 585 300" fill="none" xmlns="http://www.w3.org/2000/svg">
<path d="M40.8002 294.4C26.9335 294.4 16.6669 290.267 10.0002 282C3.33353 273.733 0.00019592 262.667 0.00019592 248.8V62.4C0.00019592 42.1333 5.46686 27.2 16.4002 17.6C27.6002 8.00001 40.9335 3.20001 56.4002 3.20001C71.0669 3.20001 83.4669 8.00001 93.6002 17.6C104 27.2 111.6 42.4 116.4 63.2L147.6 198.8H158L189.2 63.2C194 42.4 201.6 27.2 212 17.6C222.667 8.00001 235.334 3.20001 250 3.20001C265.467 3.20001 278.667 8.00001 289.6 17.6C300.8 27.2 306.4 42.1333 306.4 62.4V248.8C306.4 262.667 302.934 273.733 296 282C289.334 290.267 279.067 294.4 265.2 294.4C251.867 294.4 241.6 290.267 234.4 282C227.2 273.733 223.6 262.667 223.6 248.8V141.2C223.6 138.533 223.2 136.133 222.4 134C221.867 131.6 220.134 130.4 217.2 130.4C214.8 130.4 213.067 131.6 212 134C210.934 136.133 210.134 138.533 209.6 141.2L194.4 242C192.534 252.933 190.267 262.4 187.6 270.4C185.2 278.133 181.334 284.133 176 288.4C170.667 292.4 162.934 294.4 152.8 294.4C142.934 294.4 135.2 292.4 129.6 288.4C124.267 284.133 120.267 278.133 117.6 270.4C115.2 262.4 113.2 252.933 111.6 242L96.0002 141.2C95.7335 138.533 95.0669 136.133 94.0002 134C92.9335 131.6 91.0669 130.4 88.4002 130.4C85.7335 130.4 84.0002 131.6 83.2002 134C82.4002 136.133 82.0002 138.533 82.0002 141.2V248.8C82.0002 262.667 78.4002 273.733 71.2002 282C64.2669 290.267 54.1335 294.4 40.8002 294.4ZM340.031 210.4C349.898 197.333 360.831 186.133 372.831 176.8C384.831 167.2 398.165 157.867 412.831 148.8C406.165 141.333 398.831 134.667 390.831 128.8C383.098 122.933 375.231 116.933 367.231 110.8C359.498 104.4 352.031 96.9333 344.831 88.4C337.898 79.6 333.098 70.4 330.431 60.8C327.765 50.9333 327.765 41.4667 330.431 32.4C333.365 23.3334 339.231 15.8667 348.031 10C357.631 3.33334 367.365 0.933337 377.231 2.80001C387.098 4.40001 396.431 9.06668 405.231 16.8C414.031 24.2667 421.631 33.7334 428.031 45.2C433.898 55.3333 439.631 65.0667 445.231 74.4C450.831 83.4667 456.298 91.8667 461.631 99.6C468.831 92.6667 474.031 86.1334 477.231 80C480.431 73.6 483.231 66.6667 485.631 59.2C488.298 51.7333 492.031 43.0667 496.831 33.2C500.831 24.6667 506.298 17.8667 513.231 12.8C520.431 7.46667 528.431 4.40001 537.231 3.6C546.031 2.80001 554.698 5.06668 563.231 10.4C571.765 15.4667 577.365 22.5333 580.031 31.6C582.965 40.4 583.098 49.8667 580.431 60C578.031 70.1333 573.098 79.7333 565.631 88.8C557.098 98.9334 546.698 108 534.431 116C522.431 123.733 509.765 130.667 496.431 136.8C509.765 149.067 522.698 160.667 535.231 171.6C547.765 182.533 559.098 195.2 569.231 209.6C579.365 224 584.031 238.533 583.231 253.2C582.698 267.867 576.165 279.333 563.631 287.6C550.565 295.867 537.098 297.467 523.231 292.4C509.365 287.333 497.231 277.067 486.831 261.6C476.698 246.133 468.298 232.8 461.631 221.6C455.231 210.133 448.965 199.333 442.831 189.2C440.698 194.533 438.831 200.667 437.231 207.6C435.898 214.533 433.898 222.533 431.231 231.6C428.831 240.667 424.698 251.2 418.831 263.2C414.031 273.6 407.365 281.6 398.831 287.2C390.298 292.533 381.098 294.933 371.231 294.4C361.365 294.133 351.898 290.667 342.831 284C335.365 278.133 330.431 271.067 328.031 262.8C325.898 254.267 325.898 245.467 328.031 236.4C330.165 227.067 334.165 218.4 340.031 210.4Z" fill="#121212"/>
</svg>
