<svg width="1654" height="263" viewBox="0 0 1654 263" fill="none" xmlns="http://www.w3.org/2000/svg">
<path d="M74.75 258.35C65.9167 258.35 57.9167 256.35 50.75 252.35C43.75 248.35 38.25 242.683 34.25 235.35C30.25 227.85 28.25 219.1 28.25 209.1V165.1L19 166.35C14 167.017 9.58333 165.267 5.75 161.1C1.91667 156.933 2.71946e-07 151.683 2.71946e-07 145.35C2.71946e-07 139.017 1.91667 133.85 5.75 129.85C9.58333 125.683 14 123.933 19 124.6L28.25 125.85L28 108.85C27.8333 102.183 29.75 96.9333 33.75 93.1C37.75 89.1 43.5833 87.1 51.25 87.1C58.9167 87.1 64.8333 89.1 69 93.1C73.1667 96.9333 75.0833 102.183 74.75 108.85L74.25 125.85L87.5 124.1C96.5 122.767 103.333 124.433 108 129.1C112.667 133.6 115 139.017 115 145.35C115 151.683 112.667 157.183 108 161.85C103.5 166.35 96.9167 168.017 88.25 166.85L74.25 165.1V202.35C74.25 204.517 75 206.517 76.5 208.35C78 210.017 79.8333 210.517 82 209.85C84.5 209.183 87.0833 207.767 89.75 205.6C92.5833 203.433 96.1667 202.35 100.5 202.35C107 202.35 112 204.683 115.5 209.35C119 214.017 120.75 219.767 120.75 226.6C120.75 231.933 118.833 237.1 115 242.1C111.333 246.933 106.083 250.85 99.25 253.85C92.4167 256.85 84.25 258.35 74.75 258.35ZM155.639 257.6C148.305 257.6 142.472 255.433 138.139 251.1C133.972 246.6 131.889 241.1 131.889 234.6V89.85C131.889 82.85 133.972 76.9333 138.139 72.1C142.472 67.2667 148.555 64.85 156.389 64.85C164.055 64.85 169.805 67.2667 173.639 72.1C177.639 76.9333 179.639 82.9333 179.639 90.1V164.85H184.139C184.139 155.35 185.805 147.85 189.139 142.35C192.639 136.85 197.055 132.933 202.389 130.6C207.889 128.1 213.472 126.85 219.139 126.85C229.139 126.85 236.722 129.35 241.889 134.35C247.222 139.183 250.805 145.683 252.639 153.85C254.639 162.017 255.639 170.933 255.639 180.6V234.6C255.639 241.433 253.389 247.017 248.889 251.35C244.555 255.517 238.722 257.6 231.389 257.6C223.889 257.6 217.972 255.517 213.639 251.35C209.305 247.017 207.139 241.433 207.139 234.6V190.35C207.139 184.35 205.972 179.683 203.639 176.35C201.305 173.017 197.889 171.35 193.389 171.35C188.889 171.35 185.472 173.183 183.139 176.85C180.805 180.517 179.639 185.183 179.639 190.85V234.6C179.639 241.1 177.472 246.6 173.139 251.1C168.972 255.433 163.139 257.6 155.639 257.6ZM267.607 192.6C267.607 179.433 270.191 167.85 275.357 157.85C280.691 147.85 288.191 140.017 297.857 134.35C307.691 128.683 319.357 125.85 332.857 125.85C343.357 125.85 352.774 127.767 361.107 131.6C369.607 135.433 376.274 140.6 381.107 147.1C385.941 153.433 388.357 160.433 388.357 168.1C388.357 176.1 386.024 181.767 381.357 185.1C376.691 188.433 369.774 190.1 360.607 190.1H308.107C308.107 194.433 309.774 198.017 313.107 200.85C316.607 203.683 322.441 205.1 330.607 205.1C334.774 205.1 338.607 204.683 342.107 203.85C345.774 203.017 349.441 202.267 353.107 201.6C356.941 200.767 361.191 200.35 365.857 200.35C372.524 200.35 378.024 202.767 382.357 207.6C386.691 212.267 388.857 218.767 388.857 227.1C388.857 236.933 383.774 244.6 373.607 250.1C363.607 255.6 350.441 258.35 334.107 258.35C322.607 258.35 311.774 256.1 301.607 251.6C291.607 247.1 283.441 240.017 277.107 230.35C270.774 220.517 267.607 207.933 267.607 192.6ZM348.607 181.85C351.107 181.85 351.941 180.683 351.107 178.35C350.441 176.017 348.441 173.6 345.107 171.1C341.774 168.6 336.941 167.35 330.607 167.35C323.274 167.35 317.774 168.933 314.107 172.1C310.607 175.267 308.857 178.517 308.857 181.85H348.607ZM440.349 257.6C428.216 257.6 419.233 253.983 413.399 246.75C407.566 239.517 404.649 229.833 404.649 217.7V54.6C404.649 36.8667 409.433 23.8 418.999 15.4C428.799 7.00001 440.466 2.80001 453.999 2.80001C466.833 2.80001 477.683 7.00001 486.549 15.4C495.649 23.8 502.299 37.1 506.499 55.3L533.799 173.95H542.899L570.199 55.3C574.399 37.1 581.049 23.8 590.149 15.4C599.483 7.00001 610.566 2.80001 623.399 2.80001C636.933 2.80001 648.483 7.00001 658.049 15.4C667.849 23.8 672.749 36.8667 672.749 54.6V217.7C672.749 229.833 669.716 239.517 663.649 246.75C657.816 253.983 648.833 257.6 636.699 257.6C625.033 257.6 616.049 253.983 609.749 246.75C603.449 239.517 600.299 229.833 600.299 217.7V123.55C600.299 121.217 599.949 119.117 599.249 117.25C598.783 115.15 597.266 114.1 594.699 114.1C592.599 114.1 591.083 115.15 590.149 117.25C589.216 119.117 588.516 121.217 588.049 123.55L574.749 211.75C573.116 221.317 571.133 229.6 568.799 236.6C566.699 243.367 563.316 248.617 558.649 252.35C553.983 255.85 547.216 257.6 538.349 257.6C529.716 257.6 522.949 255.85 518.049 252.35C513.383 248.617 509.883 243.367 507.549 236.6C505.449 229.6 503.699 221.317 502.299 211.75L488.649 123.55C488.416 121.217 487.833 119.117 486.899 117.25C485.966 115.15 484.333 114.1 481.999 114.1C479.666 114.1 478.149 115.15 477.449 117.25C476.749 119.117 476.399 121.217 476.399 123.55V217.7C476.399 229.833 473.249 239.517 466.949 246.75C460.883 253.983 452.016 257.6 440.349 257.6ZM702.177 184.1C710.81 172.667 720.377 162.867 730.877 154.7C741.377 146.3 753.043 138.133 765.877 130.2C760.043 123.667 753.627 117.833 746.627 112.7C739.86 107.567 732.977 102.317 725.977 96.95C719.21 91.35 712.677 84.8167 706.377 77.35C700.31 69.65 696.11 61.6 693.777 53.2C691.443 44.5667 691.443 36.2833 693.777 28.35C696.343 20.4167 701.477 13.8833 709.177 8.75001C717.577 2.91667 726.093 0.81667 734.727 2.45001C743.36 3.85001 751.527 7.93334 759.227 14.7C766.927 21.2334 773.577 29.5167 779.177 39.55C784.31 48.4167 789.327 56.9333 794.227 65.1C799.127 73.0333 803.91 80.3833 808.577 87.15C814.877 81.0833 819.427 75.3667 822.227 70C825.027 64.4 827.477 58.3334 829.577 51.8C831.91 45.2667 835.177 37.6833 839.377 29.05C842.877 21.5833 847.66 15.6333 853.727 11.2C860.027 6.53334 867.027 3.85001 874.727 3.15C882.427 2.45001 890.01 4.43335 897.477 9.10001C904.943 13.5333 909.843 19.7167 912.177 27.65C914.743 35.35 914.86 43.6333 912.527 52.5C910.427 61.3667 906.11 69.7667 899.577 77.7C892.11 86.5667 883.01 94.5 872.277 101.5C861.777 108.267 850.693 114.333 839.027 119.7C850.693 130.433 862.01 140.583 872.977 150.15C883.943 159.717 893.86 170.8 902.727 183.4C911.593 196 915.677 208.717 914.977 221.55C914.51 234.383 908.793 244.417 897.827 251.65C886.393 258.883 874.61 260.283 862.477 255.85C850.343 251.417 839.727 242.433 830.627 228.9C821.76 215.367 814.41 203.7 808.577 193.9C802.977 183.867 797.493 174.417 792.127 165.55C790.26 170.217 788.627 175.583 787.227 181.65C786.06 187.717 784.31 194.717 781.977 202.65C779.877 210.583 776.26 219.8 771.127 230.3C766.927 239.4 761.093 246.4 753.627 251.3C746.16 255.967 738.11 258.067 729.477 257.6C720.843 257.367 712.56 254.333 704.627 248.5C698.093 243.367 693.777 237.183 691.677 229.95C689.81 222.483 689.81 214.783 691.677 206.85C693.543 198.683 697.043 191.1 702.177 184.1ZM991.275 260.85C979.775 260.85 969.109 259.767 959.275 257.6C949.609 255.267 941.859 251.683 936.025 246.85C930.192 241.85 927.275 235.267 927.275 227.1C927.275 219.933 929.442 214.017 933.775 209.35C938.109 204.683 943.859 202.35 951.025 202.35C955.525 202.35 960.025 203.1 964.525 204.6C969.192 205.933 974.109 207.267 979.275 208.6C984.442 209.933 990.025 210.6 996.025 210.6C1001.36 210.6 1004.94 210.35 1006.78 209.85C1008.61 209.183 1009.53 208.017 1009.53 206.35C1009.53 204.35 1008.36 203.017 1006.03 202.35C1003.86 201.683 1000.11 200.85 994.775 199.85L976.775 196.35C969.275 194.85 961.942 192.933 954.775 190.6C947.775 188.1 941.942 184.433 937.275 179.6C932.775 174.767 930.525 168.183 930.525 159.85C930.525 148.517 935.525 139.683 945.525 133.35C955.692 127.017 970.359 123.85 989.525 123.85C1000.53 123.85 1010.36 124.933 1019.03 127.1C1027.86 129.267 1034.86 132.517 1040.03 136.85C1045.19 141.017 1047.78 146.267 1047.78 152.6C1047.94 159.433 1046.11 164.933 1042.28 169.1C1038.44 173.267 1033.61 175.35 1027.78 175.35C1023.61 175.35 1019.36 174.85 1015.03 173.85C1010.86 172.683 1006.28 171.517 1001.28 170.35C996.442 169.017 990.859 168.267 984.525 168.1C980.025 167.767 976.359 168.017 973.525 168.85C970.692 169.683 969.275 171.017 969.275 172.85C969.275 174.85 970.942 176.267 974.275 177.1C977.609 177.767 982.609 178.683 989.275 179.85L1007.03 183.1C1017.86 184.933 1026.44 187.267 1032.78 190.1C1039.28 192.767 1043.94 196.517 1046.78 201.35C1049.61 206.183 1051.03 212.85 1051.03 221.35C1051.03 230.183 1048.44 237.6 1043.28 243.6C1038.28 249.433 1031.28 253.767 1022.28 256.6C1013.28 259.433 1002.94 260.85 991.275 260.85ZM1128.22 258.35C1119.38 258.35 1111.38 256.35 1104.22 252.35C1097.22 248.35 1091.72 242.683 1087.72 235.35C1083.72 227.85 1081.72 219.1 1081.72 209.1V165.1L1072.47 166.35C1067.47 167.017 1063.05 165.267 1059.22 161.1C1055.38 156.933 1053.47 151.683 1053.47 145.35C1053.47 139.017 1055.38 133.85 1059.22 129.85C1063.05 125.683 1067.47 123.933 1072.47 124.6L1081.72 125.85L1081.47 108.85C1081.3 102.183 1083.22 96.9333 1087.22 93.1C1091.22 89.1 1097.05 87.1 1104.72 87.1C1112.38 87.1 1118.3 89.1 1122.47 93.1C1126.63 96.9333 1128.55 102.183 1128.22 108.85L1127.72 125.85L1140.97 124.1C1149.97 122.767 1156.8 124.433 1161.47 129.1C1166.13 133.6 1168.47 139.017 1168.47 145.35C1168.47 151.683 1166.13 157.183 1161.47 161.85C1156.97 166.35 1150.38 168.017 1141.72 166.85L1127.72 165.1V202.35C1127.72 204.517 1128.47 206.517 1129.97 208.35C1131.47 210.017 1133.3 210.517 1135.47 209.85C1137.97 209.183 1140.55 207.767 1143.22 205.6C1146.05 203.433 1149.63 202.35 1153.97 202.35C1160.47 202.35 1165.47 204.683 1168.97 209.35C1172.47 214.017 1174.22 219.767 1174.22 226.6C1174.22 231.933 1172.3 237.1 1168.47 242.1C1164.8 246.933 1159.55 250.85 1152.72 253.85C1145.88 256.85 1137.72 258.35 1128.22 258.35ZM1225.36 257.6C1213.69 257.6 1204.19 253.183 1196.86 244.35C1189.52 235.517 1185.77 223.1 1185.61 207.1L1185.36 149.35C1185.36 142.183 1187.52 136.6 1191.86 132.6C1196.36 128.433 1202.44 126.35 1210.11 126.35C1217.44 126.35 1223.36 128.433 1227.86 132.6C1232.36 136.6 1234.61 142.183 1234.61 149.35V201.6C1234.61 214.1 1239.52 220.35 1249.36 220.35C1254.19 220.35 1257.44 218.6 1259.11 215.1C1260.77 211.433 1261.61 206.767 1261.61 201.1V149.35C1261.61 142.85 1263.86 137.433 1268.36 133.1C1272.86 128.6 1278.69 126.35 1285.86 126.35C1293.36 126.35 1299.11 128.6 1303.11 133.1C1307.27 137.433 1309.36 142.85 1309.36 149.35V231.35C1309.36 239.35 1307.52 245.767 1303.86 250.6C1300.36 255.267 1294.61 257.6 1286.61 257.6C1278.77 257.6 1272.61 255.267 1268.11 250.6C1263.77 245.767 1261.61 239.35 1261.61 231.35V227.1H1257.11C1257.11 236.767 1254.19 244.267 1248.36 249.6C1242.69 254.933 1235.02 257.6 1225.36 257.6ZM1366.82 257.6C1336.49 257.6 1321.32 235.267 1321.32 190.6C1321.32 171.267 1325.07 155.85 1332.57 144.35C1340.07 132.683 1351.32 126.85 1366.32 126.85C1374.49 126.85 1381.07 128.517 1386.07 131.85C1391.24 135.183 1395.24 139.767 1398.07 145.6C1401.07 151.267 1403.24 157.85 1404.57 165.35L1405.32 165.1V89.35C1405.32 82.5167 1407.32 76.7667 1411.32 72.1C1415.49 67.2667 1421.49 64.85 1429.32 64.85C1436.99 64.85 1442.65 67.2667 1446.32 72.1C1450.15 76.7667 1452.07 82.6833 1452.07 89.85V202.35C1452.07 208.017 1452.49 213.267 1453.32 218.1C1454.32 222.767 1455.07 227.433 1455.57 232.1C1456.07 238.433 1454.74 243.933 1451.57 248.6C1448.57 253.1 1443.15 256.017 1435.32 257.35C1425.15 259.017 1417.57 257.267 1412.57 252.1C1407.74 246.933 1405.32 239.267 1405.32 229.1V219.85H1400.57C1400.57 232.017 1397.49 241.35 1391.32 247.85C1385.32 254.35 1377.15 257.6 1366.82 257.6ZM1363.07 188.35C1363.07 193.517 1364.65 197.35 1367.82 199.85C1370.99 202.35 1376.65 203.6 1384.82 203.6C1393.15 203.6 1398.9 202.35 1402.07 199.85C1405.24 197.35 1406.82 193.517 1406.82 188.35C1406.82 183.017 1405.24 179.183 1402.07 176.85C1399.07 174.35 1393.4 173.1 1385.07 173.1C1376.74 173.1 1370.99 174.35 1367.82 176.85C1364.65 179.183 1363.07 183.017 1363.07 188.35ZM1466.58 97.85C1466.58 90.6833 1468.75 84.9333 1473.08 80.6C1477.58 76.1 1483.75 73.85 1491.58 73.85C1499.92 73.85 1506.08 76.0167 1510.08 80.35C1514.25 84.6833 1516.33 90.4333 1516.33 97.6C1516.33 104.6 1514.25 110.267 1510.08 114.6C1506.08 118.767 1499.92 120.85 1491.58 120.85C1483.42 120.85 1477.17 118.767 1472.83 114.6C1468.67 110.267 1466.58 104.683 1466.58 97.85ZM1491.58 257.6C1483.75 257.6 1477.92 255.433 1474.08 251.1C1470.25 246.767 1468.33 241.35 1468.33 234.85V149.35C1468.33 142.183 1470.25 136.517 1474.08 132.35C1477.92 128.183 1483.75 126.1 1491.58 126.1C1499.42 126.1 1505.25 128.183 1509.08 132.35C1513.08 136.517 1515.08 142.017 1515.08 148.85V234.85C1515.08 241.35 1513 246.767 1508.83 251.1C1504.83 255.433 1499.08 257.6 1491.58 257.6ZM1589.42 258.1C1569.92 258.1 1554.34 252.35 1542.67 240.85C1531.17 229.183 1525.42 212.767 1525.42 191.6C1525.42 178.6 1528.09 167.183 1533.42 157.35C1538.75 147.517 1546.17 139.85 1555.67 134.35C1565.34 128.683 1576.59 125.85 1589.42 125.85C1603.75 125.85 1615.67 128.683 1625.17 134.35C1634.67 139.85 1641.75 147.517 1646.42 157.35C1651.25 167.183 1653.67 178.6 1653.67 191.6C1653.67 212.767 1648.34 229.183 1637.67 240.85C1627.17 252.35 1611.09 258.1 1589.42 258.1ZM1555.17 187.35C1555.17 192.517 1557.75 196.183 1562.92 198.35C1568.09 200.35 1576.92 201.35 1589.42 201.35C1601.92 201.35 1610.75 200.35 1615.92 198.35C1621.09 196.183 1623.67 192.517 1623.67 187.35C1623.67 182.35 1621.09 178.85 1615.92 176.85C1610.75 174.85 1601.92 173.85 1589.42 173.85C1576.92 173.85 1568.09 174.85 1562.92 176.85C1557.75 178.85 1555.17 182.35 1555.17 187.35Z" fill="#121212"/>
</svg>
