<svg width="1664" height="269" viewBox="0 0 1664 269" fill="none" xmlns="http://www.w3.org/2000/svg">
<mask id="path-1-outside-1_131_6" maskUnits="userSpaceOnUse" x="-0.5" y="-0.313171" width="1665" height="270" fill="black">
<rect fill="white" x="-0.5" y="-0.313171" width="1665" height="270"/>
<path d="M79.75 261.437C70.9167 261.437 62.9167 259.437 55.75 255.437C48.75 251.437 43.25 245.77 39.25 238.437C35.25 230.937 33.25 222.187 33.25 212.187V168.187L24 169.437C19 170.103 14.5833 168.353 10.75 164.187C6.91667 160.02 5 154.77 5 148.437C5 142.103 6.91667 136.937 10.75 132.937C14.5833 128.77 19 127.02 24 127.687L33.25 128.937L33 111.937C32.8333 105.27 34.75 100.02 38.75 96.1868C42.75 92.1868 48.5833 90.1868 56.25 90.1868C63.9167 90.1868 69.8333 92.1868 74 96.1868C78.1667 100.02 80.0833 105.27 79.75 111.937L79.25 128.937L92.5 127.187C101.5 125.853 108.333 127.52 113 132.187C117.667 136.687 120 142.103 120 148.437C120 154.77 117.667 160.27 113 164.937C108.5 169.437 101.917 171.103 93.25 169.937L79.25 168.187V205.437C79.25 207.603 80 209.603 81.5 211.437C83 213.103 84.8333 213.603 87 212.937C89.5 212.27 92.0833 210.853 94.75 208.687C97.5833 206.52 101.167 205.437 105.5 205.437C112 205.437 117 207.77 120.5 212.437C124 217.103 125.75 222.853 125.75 229.687C125.75 235.02 123.833 240.187 120 245.187C116.333 250.02 111.083 253.937 104.25 256.937C97.4167 259.937 89.25 261.437 79.75 261.437ZM160.639 260.687C153.305 260.687 147.472 258.52 143.139 254.187C138.972 249.687 136.889 244.187 136.889 237.687V92.9368C136.889 85.9368 138.972 80.0201 143.139 75.1868C147.472 70.3535 153.555 67.9368 161.389 67.9368C169.055 67.9368 174.805 70.3535 178.639 75.1868C182.639 80.0201 184.639 86.0202 184.639 93.1868V167.937H189.139C189.139 158.437 190.805 150.937 194.139 145.437C197.639 139.937 202.055 136.02 207.389 133.687C212.889 131.187 218.472 129.937 224.139 129.937C234.139 129.937 241.722 132.437 246.889 137.437C252.222 142.27 255.805 148.77 257.639 156.937C259.639 165.103 260.639 174.02 260.639 183.687V237.687C260.639 244.52 258.389 250.103 253.889 254.437C249.555 258.603 243.722 260.687 236.389 260.687C228.889 260.687 222.972 258.603 218.639 254.437C214.305 250.103 212.139 244.52 212.139 237.687V193.437C212.139 187.437 210.972 182.77 208.639 179.437C206.305 176.103 202.889 174.437 198.389 174.437C193.889 174.437 190.472 176.27 188.139 179.937C185.805 183.603 184.639 188.27 184.639 193.937V237.687C184.639 244.187 182.472 249.687 178.139 254.187C173.972 258.52 168.139 260.687 160.639 260.687ZM272.607 195.687C272.607 182.52 275.191 170.937 280.357 160.937C285.691 150.937 293.191 143.103 302.857 137.437C312.691 131.77 324.357 128.937 337.857 128.937C348.357 128.937 357.774 130.853 366.107 134.687C374.607 138.52 381.274 143.687 386.107 150.187C390.941 156.52 393.357 163.52 393.357 171.187C393.357 179.187 391.024 184.853 386.357 188.187C381.691 191.52 374.774 193.187 365.607 193.187H313.107C313.107 197.52 314.774 201.103 318.107 203.937C321.607 206.77 327.441 208.187 335.607 208.187C339.774 208.187 343.607 207.77 347.107 206.937C350.774 206.103 354.441 205.353 358.107 204.687C361.941 203.853 366.191 203.437 370.857 203.437C377.524 203.437 383.024 205.853 387.357 210.687C391.691 215.353 393.857 221.853 393.857 230.187C393.857 240.02 388.774 247.687 378.607 253.187C368.607 258.687 355.441 261.437 339.107 261.437C327.607 261.437 316.774 259.187 306.607 254.687C296.607 250.187 288.441 243.103 282.107 233.437C275.774 223.603 272.607 211.02 272.607 195.687ZM353.607 184.937C356.107 184.937 356.941 183.77 356.107 181.437C355.441 179.103 353.441 176.687 350.107 174.187C346.774 171.687 341.941 170.437 335.607 170.437C328.274 170.437 322.774 172.02 319.107 175.187C315.607 178.353 313.857 181.603 313.857 184.937H353.607ZM445.349 260.687C433.216 260.687 424.233 257.07 418.399 249.837C412.566 242.603 409.649 232.92 409.649 220.787V57.6868C409.649 39.9535 414.433 26.8868 423.999 18.4868C433.799 10.0868 445.466 5.88681 458.999 5.88681C471.833 5.88681 482.683 10.0868 491.549 18.4868C500.649 26.8868 507.299 40.1868 511.499 58.3868L538.799 177.037H547.899L575.199 58.3868C579.399 40.1868 586.049 26.8868 595.149 18.4868C604.483 10.0868 615.566 5.88681 628.399 5.88681C641.933 5.88681 653.483 10.0868 663.049 18.4868C672.849 26.8868 677.749 39.9535 677.749 57.6868V220.787C677.749 232.92 674.716 242.603 668.649 249.837C662.816 257.07 653.833 260.687 641.699 260.687C630.033 260.687 621.049 257.07 614.749 249.837C608.449 242.603 605.299 232.92 605.299 220.787V126.637C605.299 124.303 604.949 122.203 604.249 120.337C603.783 118.237 602.266 117.187 599.699 117.187C597.599 117.187 596.083 118.237 595.149 120.337C594.216 122.203 593.516 124.303 593.049 126.637L579.749 214.837C578.116 224.403 576.133 232.687 573.799 239.687C571.699 246.453 568.316 251.703 563.649 255.437C558.983 258.937 552.216 260.687 543.349 260.687C534.716 260.687 527.949 258.937 523.049 255.437C518.383 251.703 514.883 246.453 512.549 239.687C510.449 232.687 508.699 224.403 507.299 214.837L493.649 126.637C493.416 124.303 492.833 122.203 491.899 120.337C490.966 118.237 489.333 117.187 486.999 117.187C484.666 117.187 483.149 118.237 482.449 120.337C481.749 122.203 481.399 124.303 481.399 126.637V220.787C481.399 232.92 478.249 242.603 471.949 249.837C465.883 257.07 457.016 260.687 445.349 260.687ZM707.177 187.187C715.81 175.753 725.377 165.953 735.877 157.787C746.377 149.387 758.043 141.22 770.877 133.287C765.043 126.753 758.627 120.92 751.627 115.787C744.86 110.653 737.977 105.403 730.977 100.037C724.21 94.4368 717.677 87.9035 711.377 80.4368C705.31 72.7368 701.11 64.6868 698.777 56.2868C696.443 47.6535 696.443 39.3701 698.777 31.4368C701.343 23.5035 706.477 16.9702 714.177 11.8368C722.577 6.00348 731.093 3.90348 739.727 5.53682C748.36 6.93681 756.527 11.0201 764.227 17.7868C771.927 24.3202 778.577 32.6035 784.177 42.6368C789.31 51.5035 794.327 60.0202 799.227 68.1868C804.127 76.1202 808.91 83.4702 813.577 90.2368C819.877 84.1702 824.427 78.4535 827.227 73.0868C830.027 67.4868 832.477 61.4202 834.577 54.8868C836.91 48.3535 840.177 40.7701 844.377 32.1368C847.877 24.6701 852.66 18.7201 858.727 14.2868C865.027 9.62015 872.027 6.93681 879.727 6.23681C887.427 5.53682 895.01 7.52015 902.477 12.1868C909.943 16.6201 914.843 22.8035 917.177 30.7368C919.743 38.4368 919.86 46.7202 917.527 55.5868C915.427 64.4535 911.11 72.8535 904.577 80.7868C897.11 89.6535 888.01 97.5868 877.277 104.587C866.777 111.353 855.693 117.42 844.027 122.787C855.693 133.52 867.01 143.67 877.977 153.237C888.943 162.803 898.86 173.887 907.727 186.487C916.593 199.087 920.677 211.803 919.977 224.637C919.51 237.47 913.793 247.503 902.827 254.737C891.393 261.97 879.61 263.37 867.477 258.937C855.343 254.503 844.727 245.52 835.627 231.987C826.76 218.453 819.41 206.787 813.577 196.987C807.977 186.953 802.493 177.503 797.127 168.637C795.26 173.303 793.627 178.67 792.227 184.737C791.06 190.803 789.31 197.803 786.977 205.737C784.877 213.67 781.26 222.887 776.127 233.387C771.927 242.487 766.093 249.487 758.627 254.387C751.16 259.053 743.11 261.153 734.477 260.687C725.843 260.453 717.56 257.42 709.627 251.587C703.093 246.453 698.777 240.27 696.677 233.037C694.81 225.57 694.81 217.87 696.677 209.937C698.543 201.77 702.043 194.187 707.177 187.187ZM996.275 263.937C984.775 263.937 974.109 262.853 964.275 260.687C954.609 258.353 946.859 254.77 941.025 249.937C935.192 244.937 932.275 238.353 932.275 230.187C932.275 223.02 934.442 217.103 938.775 212.437C943.109 207.77 948.859 205.437 956.025 205.437C960.525 205.437 965.025 206.187 969.525 207.687C974.192 209.02 979.109 210.353 984.275 211.687C989.442 213.02 995.025 213.687 1001.03 213.687C1006.36 213.687 1009.94 213.437 1011.78 212.937C1013.61 212.27 1014.53 211.103 1014.53 209.437C1014.53 207.437 1013.36 206.103 1011.03 205.437C1008.86 204.77 1005.11 203.937 999.775 202.937L981.775 199.437C974.275 197.937 966.942 196.02 959.775 193.687C952.775 191.187 946.942 187.52 942.275 182.687C937.775 177.853 935.525 171.27 935.525 162.937C935.525 151.603 940.525 142.77 950.525 136.437C960.692 130.103 975.359 126.937 994.525 126.937C1005.53 126.937 1015.36 128.02 1024.03 130.187C1032.86 132.353 1039.86 135.603 1045.03 139.937C1050.19 144.103 1052.78 149.353 1052.78 155.687C1052.94 162.52 1051.11 168.02 1047.28 172.187C1043.44 176.353 1038.61 178.437 1032.78 178.437C1028.61 178.437 1024.36 177.937 1020.03 176.937C1015.86 175.77 1011.28 174.603 1006.28 173.437C1001.44 172.103 995.859 171.353 989.525 171.187C985.025 170.853 981.359 171.103 978.525 171.937C975.692 172.77 974.275 174.103 974.275 175.937C974.275 177.937 975.942 179.353 979.275 180.187C982.609 180.853 987.609 181.77 994.275 182.937L1012.03 186.187C1022.86 188.02 1031.44 190.353 1037.78 193.187C1044.28 195.853 1048.94 199.603 1051.78 204.437C1054.61 209.27 1056.03 215.937 1056.03 224.437C1056.03 233.27 1053.44 240.687 1048.28 246.687C1043.28 252.52 1036.28 256.853 1027.28 259.687C1018.28 262.52 1007.94 263.937 996.275 263.937ZM1133.22 261.437C1124.38 261.437 1116.38 259.437 1109.22 255.437C1102.22 251.437 1096.72 245.77 1092.72 238.437C1088.72 230.937 1086.72 222.187 1086.72 212.187V168.187L1077.47 169.437C1072.47 170.103 1068.05 168.353 1064.22 164.187C1060.38 160.02 1058.47 154.77 1058.47 148.437C1058.47 142.103 1060.38 136.937 1064.22 132.937C1068.05 128.77 1072.47 127.02 1077.47 127.687L1086.72 128.937L1086.47 111.937C1086.3 105.27 1088.22 100.02 1092.22 96.1868C1096.22 92.1868 1102.05 90.1868 1109.72 90.1868C1117.38 90.1868 1123.3 92.1868 1127.47 96.1868C1131.63 100.02 1133.55 105.27 1133.22 111.937L1132.72 128.937L1145.97 127.187C1154.97 125.853 1161.8 127.52 1166.47 132.187C1171.13 136.687 1173.47 142.103 1173.47 148.437C1173.47 154.77 1171.13 160.27 1166.47 164.937C1161.97 169.437 1155.38 171.103 1146.72 169.937L1132.72 168.187V205.437C1132.72 207.603 1133.47 209.603 1134.97 211.437C1136.47 213.103 1138.3 213.603 1140.47 212.937C1142.97 212.27 1145.55 210.853 1148.22 208.687C1151.05 206.52 1154.63 205.437 1158.97 205.437C1165.47 205.437 1170.47 207.77 1173.97 212.437C1177.47 217.103 1179.22 222.853 1179.22 229.687C1179.22 235.02 1177.3 240.187 1173.47 245.187C1169.8 250.02 1164.55 253.937 1157.72 256.937C1150.88 259.937 1142.72 261.437 1133.22 261.437ZM1230.36 260.687C1218.69 260.687 1209.19 256.27 1201.86 247.437C1194.52 238.603 1190.77 226.187 1190.61 210.187L1190.36 152.437C1190.36 145.27 1192.52 139.687 1196.86 135.687C1201.36 131.52 1207.44 129.437 1215.11 129.437C1222.44 129.437 1228.36 131.52 1232.86 135.687C1237.36 139.687 1239.61 145.27 1239.61 152.437V204.687C1239.61 217.187 1244.52 223.437 1254.36 223.437C1259.19 223.437 1262.44 221.687 1264.11 218.187C1265.77 214.52 1266.61 209.853 1266.61 204.187V152.437C1266.61 145.937 1268.86 140.52 1273.36 136.187C1277.86 131.687 1283.69 129.437 1290.86 129.437C1298.36 129.437 1304.11 131.687 1308.11 136.187C1312.27 140.52 1314.36 145.937 1314.36 152.437V234.437C1314.36 242.437 1312.52 248.853 1308.86 253.687C1305.36 258.353 1299.61 260.687 1291.61 260.687C1283.77 260.687 1277.61 258.353 1273.11 253.687C1268.77 248.853 1266.61 242.437 1266.61 234.437V230.187H1262.11C1262.11 239.853 1259.19 247.353 1253.36 252.687C1247.69 258.02 1240.02 260.687 1230.36 260.687ZM1371.82 260.687C1341.49 260.687 1326.32 238.353 1326.32 193.687C1326.32 174.353 1330.07 158.937 1337.57 147.437C1345.07 135.77 1356.32 129.937 1371.32 129.937C1379.49 129.937 1386.07 131.603 1391.07 134.937C1396.24 138.27 1400.24 142.853 1403.07 148.687C1406.07 154.353 1408.24 160.937 1409.57 168.437L1410.32 168.187V92.4368C1410.32 85.6035 1412.32 79.8535 1416.32 75.1868C1420.49 70.3535 1426.49 67.9368 1434.32 67.9368C1441.99 67.9368 1447.65 70.3535 1451.32 75.1868C1455.15 79.8535 1457.07 85.7702 1457.07 92.9368V205.437C1457.07 211.103 1457.49 216.353 1458.32 221.187C1459.32 225.853 1460.07 230.52 1460.57 235.187C1461.07 241.52 1459.74 247.02 1456.57 251.687C1453.57 256.187 1448.15 259.103 1440.32 260.437C1430.15 262.103 1422.57 260.353 1417.57 255.187C1412.74 250.02 1410.32 242.353 1410.32 232.187V222.937H1405.57C1405.57 235.103 1402.49 244.437 1396.32 250.937C1390.32 257.437 1382.15 260.687 1371.82 260.687ZM1368.07 191.437C1368.07 196.603 1369.65 200.437 1372.82 202.937C1375.99 205.437 1381.65 206.687 1389.82 206.687C1398.15 206.687 1403.9 205.437 1407.07 202.937C1410.24 200.437 1411.82 196.603 1411.82 191.437C1411.82 186.103 1410.24 182.27 1407.07 179.937C1404.07 177.437 1398.4 176.187 1390.07 176.187C1381.74 176.187 1375.99 177.437 1372.82 179.937C1369.65 182.27 1368.07 186.103 1368.07 191.437ZM1471.58 100.937C1471.58 93.7702 1473.75 88.0202 1478.08 83.6868C1482.58 79.1868 1488.75 76.9368 1496.58 76.9368C1504.92 76.9368 1511.08 79.1035 1515.08 83.4368C1519.25 87.7702 1521.33 93.5202 1521.33 100.687C1521.33 107.687 1519.25 113.353 1515.08 117.687C1511.08 121.853 1504.92 123.937 1496.58 123.937C1488.42 123.937 1482.17 121.853 1477.83 117.687C1473.67 113.353 1471.58 107.77 1471.58 100.937ZM1496.58 260.687C1488.75 260.687 1482.92 258.52 1479.08 254.187C1475.25 249.853 1473.33 244.437 1473.33 237.937V152.437C1473.33 145.27 1475.25 139.603 1479.08 135.437C1482.92 131.27 1488.75 129.187 1496.58 129.187C1504.42 129.187 1510.25 131.27 1514.08 135.437C1518.08 139.603 1520.08 145.103 1520.08 151.937V237.937C1520.08 244.437 1518 249.853 1513.83 254.187C1509.83 258.52 1504.08 260.687 1496.58 260.687ZM1594.42 261.187C1574.92 261.187 1559.34 255.437 1547.67 243.937C1536.17 232.27 1530.42 215.853 1530.42 194.687C1530.42 181.687 1533.09 170.27 1538.42 160.437C1543.75 150.603 1551.17 142.937 1560.67 137.437C1570.34 131.77 1581.59 128.937 1594.42 128.937C1608.75 128.937 1620.67 131.77 1630.17 137.437C1639.67 142.937 1646.75 150.603 1651.42 160.437C1656.25 170.27 1658.67 181.687 1658.67 194.687C1658.67 215.853 1653.34 232.27 1642.67 243.937C1632.17 255.437 1616.09 261.187 1594.42 261.187ZM1560.17 190.437C1560.17 195.603 1562.75 199.27 1567.92 201.437C1573.09 203.437 1581.92 204.437 1594.42 204.437C1606.92 204.437 1615.75 203.437 1620.92 201.437C1626.09 199.27 1628.67 195.603 1628.67 190.437C1628.67 185.437 1626.09 181.937 1620.92 179.937C1615.75 177.937 1606.92 176.937 1594.42 176.937C1581.92 176.937 1573.09 177.937 1567.92 179.937C1562.75 181.937 1560.17 185.437 1560.17 190.437Z"/>
</mask>
<path d="M79.75 261.437C70.9167 261.437 62.9167 259.437 55.75 255.437C48.75 251.437 43.25 245.77 39.25 238.437C35.25 230.937 33.25 222.187 33.25 212.187V168.187L24 169.437C19 170.103 14.5833 168.353 10.75 164.187C6.91667 160.02 5 154.77 5 148.437C5 142.103 6.91667 136.937 10.75 132.937C14.5833 128.77 19 127.02 24 127.687L33.25 128.937L33 111.937C32.8333 105.27 34.75 100.02 38.75 96.1868C42.75 92.1868 48.5833 90.1868 56.25 90.1868C63.9167 90.1868 69.8333 92.1868 74 96.1868C78.1667 100.02 80.0833 105.27 79.75 111.937L79.25 128.937L92.5 127.187C101.5 125.853 108.333 127.52 113 132.187C117.667 136.687 120 142.103 120 148.437C120 154.77 117.667 160.27 113 164.937C108.5 169.437 101.917 171.103 93.25 169.937L79.25 168.187V205.437C79.25 207.603 80 209.603 81.5 211.437C83 213.103 84.8333 213.603 87 212.937C89.5 212.27 92.0833 210.853 94.75 208.687C97.5833 206.52 101.167 205.437 105.5 205.437C112 205.437 117 207.77 120.5 212.437C124 217.103 125.75 222.853 125.75 229.687C125.75 235.02 123.833 240.187 120 245.187C116.333 250.02 111.083 253.937 104.25 256.937C97.4167 259.937 89.25 261.437 79.75 261.437ZM160.639 260.687C153.305 260.687 147.472 258.52 143.139 254.187C138.972 249.687 136.889 244.187 136.889 237.687V92.9368C136.889 85.9368 138.972 80.0201 143.139 75.1868C147.472 70.3535 153.555 67.9368 161.389 67.9368C169.055 67.9368 174.805 70.3535 178.639 75.1868C182.639 80.0201 184.639 86.0202 184.639 93.1868V167.937H189.139C189.139 158.437 190.805 150.937 194.139 145.437C197.639 139.937 202.055 136.02 207.389 133.687C212.889 131.187 218.472 129.937 224.139 129.937C234.139 129.937 241.722 132.437 246.889 137.437C252.222 142.27 255.805 148.77 257.639 156.937C259.639 165.103 260.639 174.02 260.639 183.687V237.687C260.639 244.52 258.389 250.103 253.889 254.437C249.555 258.603 243.722 260.687 236.389 260.687C228.889 260.687 222.972 258.603 218.639 254.437C214.305 250.103 212.139 244.52 212.139 237.687V193.437C212.139 187.437 210.972 182.77 208.639 179.437C206.305 176.103 202.889 174.437 198.389 174.437C193.889 174.437 190.472 176.27 188.139 179.937C185.805 183.603 184.639 188.27 184.639 193.937V237.687C184.639 244.187 182.472 249.687 178.139 254.187C173.972 258.52 168.139 260.687 160.639 260.687ZM272.607 195.687C272.607 182.52 275.191 170.937 280.357 160.937C285.691 150.937 293.191 143.103 302.857 137.437C312.691 131.77 324.357 128.937 337.857 128.937C348.357 128.937 357.774 130.853 366.107 134.687C374.607 138.52 381.274 143.687 386.107 150.187C390.941 156.52 393.357 163.52 393.357 171.187C393.357 179.187 391.024 184.853 386.357 188.187C381.691 191.52 374.774 193.187 365.607 193.187H313.107C313.107 197.52 314.774 201.103 318.107 203.937C321.607 206.77 327.441 208.187 335.607 208.187C339.774 208.187 343.607 207.77 347.107 206.937C350.774 206.103 354.441 205.353 358.107 204.687C361.941 203.853 366.191 203.437 370.857 203.437C377.524 203.437 383.024 205.853 387.357 210.687C391.691 215.353 393.857 221.853 393.857 230.187C393.857 240.02 388.774 247.687 378.607 253.187C368.607 258.687 355.441 261.437 339.107 261.437C327.607 261.437 316.774 259.187 306.607 254.687C296.607 250.187 288.441 243.103 282.107 233.437C275.774 223.603 272.607 211.02 272.607 195.687ZM353.607 184.937C356.107 184.937 356.941 183.77 356.107 181.437C355.441 179.103 353.441 176.687 350.107 174.187C346.774 171.687 341.941 170.437 335.607 170.437C328.274 170.437 322.774 172.02 319.107 175.187C315.607 178.353 313.857 181.603 313.857 184.937H353.607ZM445.349 260.687C433.216 260.687 424.233 257.07 418.399 249.837C412.566 242.603 409.649 232.92 409.649 220.787V57.6868C409.649 39.9535 414.433 26.8868 423.999 18.4868C433.799 10.0868 445.466 5.88681 458.999 5.88681C471.833 5.88681 482.683 10.0868 491.549 18.4868C500.649 26.8868 507.299 40.1868 511.499 58.3868L538.799 177.037H547.899L575.199 58.3868C579.399 40.1868 586.049 26.8868 595.149 18.4868C604.483 10.0868 615.566 5.88681 628.399 5.88681C641.933 5.88681 653.483 10.0868 663.049 18.4868C672.849 26.8868 677.749 39.9535 677.749 57.6868V220.787C677.749 232.92 674.716 242.603 668.649 249.837C662.816 257.07 653.833 260.687 641.699 260.687C630.033 260.687 621.049 257.07 614.749 249.837C608.449 242.603 605.299 232.92 605.299 220.787V126.637C605.299 124.303 604.949 122.203 604.249 120.337C603.783 118.237 602.266 117.187 599.699 117.187C597.599 117.187 596.083 118.237 595.149 120.337C594.216 122.203 593.516 124.303 593.049 126.637L579.749 214.837C578.116 224.403 576.133 232.687 573.799 239.687C571.699 246.453 568.316 251.703 563.649 255.437C558.983 258.937 552.216 260.687 543.349 260.687C534.716 260.687 527.949 258.937 523.049 255.437C518.383 251.703 514.883 246.453 512.549 239.687C510.449 232.687 508.699 224.403 507.299 214.837L493.649 126.637C493.416 124.303 492.833 122.203 491.899 120.337C490.966 118.237 489.333 117.187 486.999 117.187C484.666 117.187 483.149 118.237 482.449 120.337C481.749 122.203 481.399 124.303 481.399 126.637V220.787C481.399 232.92 478.249 242.603 471.949 249.837C465.883 257.07 457.016 260.687 445.349 260.687ZM707.177 187.187C715.81 175.753 725.377 165.953 735.877 157.787C746.377 149.387 758.043 141.22 770.877 133.287C765.043 126.753 758.627 120.92 751.627 115.787C744.86 110.653 737.977 105.403 730.977 100.037C724.21 94.4368 717.677 87.9035 711.377 80.4368C705.31 72.7368 701.11 64.6868 698.777 56.2868C696.443 47.6535 696.443 39.3701 698.777 31.4368C701.343 23.5035 706.477 16.9702 714.177 11.8368C722.577 6.00348 731.093 3.90348 739.727 5.53682C748.36 6.93681 756.527 11.0201 764.227 17.7868C771.927 24.3202 778.577 32.6035 784.177 42.6368C789.31 51.5035 794.327 60.0202 799.227 68.1868C804.127 76.1202 808.91 83.4702 813.577 90.2368C819.877 84.1702 824.427 78.4535 827.227 73.0868C830.027 67.4868 832.477 61.4202 834.577 54.8868C836.91 48.3535 840.177 40.7701 844.377 32.1368C847.877 24.6701 852.66 18.7201 858.727 14.2868C865.027 9.62015 872.027 6.93681 879.727 6.23681C887.427 5.53682 895.01 7.52015 902.477 12.1868C909.943 16.6201 914.843 22.8035 917.177 30.7368C919.743 38.4368 919.86 46.7202 917.527 55.5868C915.427 64.4535 911.11 72.8535 904.577 80.7868C897.11 89.6535 888.01 97.5868 877.277 104.587C866.777 111.353 855.693 117.42 844.027 122.787C855.693 133.52 867.01 143.67 877.977 153.237C888.943 162.803 898.86 173.887 907.727 186.487C916.593 199.087 920.677 211.803 919.977 224.637C919.51 237.47 913.793 247.503 902.827 254.737C891.393 261.97 879.61 263.37 867.477 258.937C855.343 254.503 844.727 245.52 835.627 231.987C826.76 218.453 819.41 206.787 813.577 196.987C807.977 186.953 802.493 177.503 797.127 168.637C795.26 173.303 793.627 178.67 792.227 184.737C791.06 190.803 789.31 197.803 786.977 205.737C784.877 213.67 781.26 222.887 776.127 233.387C771.927 242.487 766.093 249.487 758.627 254.387C751.16 259.053 743.11 261.153 734.477 260.687C725.843 260.453 717.56 257.42 709.627 251.587C703.093 246.453 698.777 240.27 696.677 233.037C694.81 225.57 694.81 217.87 696.677 209.937C698.543 201.77 702.043 194.187 707.177 187.187ZM996.275 263.937C984.775 263.937 974.109 262.853 964.275 260.687C954.609 258.353 946.859 254.77 941.025 249.937C935.192 244.937 932.275 238.353 932.275 230.187C932.275 223.02 934.442 217.103 938.775 212.437C943.109 207.77 948.859 205.437 956.025 205.437C960.525 205.437 965.025 206.187 969.525 207.687C974.192 209.02 979.109 210.353 984.275 211.687C989.442 213.02 995.025 213.687 1001.03 213.687C1006.36 213.687 1009.94 213.437 1011.78 212.937C1013.61 212.27 1014.53 211.103 1014.53 209.437C1014.53 207.437 1013.36 206.103 1011.03 205.437C1008.86 204.77 1005.11 203.937 999.775 202.937L981.775 199.437C974.275 197.937 966.942 196.02 959.775 193.687C952.775 191.187 946.942 187.52 942.275 182.687C937.775 177.853 935.525 171.27 935.525 162.937C935.525 151.603 940.525 142.77 950.525 136.437C960.692 130.103 975.359 126.937 994.525 126.937C1005.53 126.937 1015.36 128.02 1024.03 130.187C1032.86 132.353 1039.86 135.603 1045.03 139.937C1050.19 144.103 1052.78 149.353 1052.78 155.687C1052.94 162.52 1051.11 168.02 1047.28 172.187C1043.44 176.353 1038.61 178.437 1032.78 178.437C1028.61 178.437 1024.36 177.937 1020.03 176.937C1015.86 175.77 1011.28 174.603 1006.28 173.437C1001.44 172.103 995.859 171.353 989.525 171.187C985.025 170.853 981.359 171.103 978.525 171.937C975.692 172.77 974.275 174.103 974.275 175.937C974.275 177.937 975.942 179.353 979.275 180.187C982.609 180.853 987.609 181.77 994.275 182.937L1012.03 186.187C1022.86 188.02 1031.44 190.353 1037.78 193.187C1044.28 195.853 1048.94 199.603 1051.78 204.437C1054.61 209.27 1056.03 215.937 1056.03 224.437C1056.03 233.27 1053.44 240.687 1048.28 246.687C1043.28 252.52 1036.28 256.853 1027.28 259.687C1018.28 262.52 1007.94 263.937 996.275 263.937ZM1133.22 261.437C1124.38 261.437 1116.38 259.437 1109.22 255.437C1102.22 251.437 1096.72 245.77 1092.72 238.437C1088.72 230.937 1086.72 222.187 1086.72 212.187V168.187L1077.47 169.437C1072.47 170.103 1068.05 168.353 1064.22 164.187C1060.38 160.02 1058.47 154.77 1058.47 148.437C1058.47 142.103 1060.38 136.937 1064.22 132.937C1068.05 128.77 1072.47 127.02 1077.47 127.687L1086.72 128.937L1086.47 111.937C1086.3 105.27 1088.22 100.02 1092.22 96.1868C1096.22 92.1868 1102.05 90.1868 1109.72 90.1868C1117.38 90.1868 1123.3 92.1868 1127.47 96.1868C1131.63 100.02 1133.55 105.27 1133.22 111.937L1132.72 128.937L1145.97 127.187C1154.97 125.853 1161.8 127.52 1166.47 132.187C1171.13 136.687 1173.47 142.103 1173.47 148.437C1173.47 154.77 1171.13 160.27 1166.47 164.937C1161.97 169.437 1155.38 171.103 1146.72 169.937L1132.72 168.187V205.437C1132.72 207.603 1133.47 209.603 1134.97 211.437C1136.47 213.103 1138.3 213.603 1140.47 212.937C1142.97 212.27 1145.55 210.853 1148.22 208.687C1151.05 206.52 1154.63 205.437 1158.97 205.437C1165.47 205.437 1170.47 207.77 1173.97 212.437C1177.47 217.103 1179.22 222.853 1179.22 229.687C1179.22 235.02 1177.3 240.187 1173.47 245.187C1169.8 250.02 1164.55 253.937 1157.72 256.937C1150.88 259.937 1142.72 261.437 1133.22 261.437ZM1230.36 260.687C1218.69 260.687 1209.19 256.27 1201.86 247.437C1194.52 238.603 1190.77 226.187 1190.61 210.187L1190.36 152.437C1190.36 145.27 1192.52 139.687 1196.86 135.687C1201.36 131.52 1207.44 129.437 1215.11 129.437C1222.44 129.437 1228.36 131.52 1232.86 135.687C1237.36 139.687 1239.61 145.27 1239.61 152.437V204.687C1239.61 217.187 1244.52 223.437 1254.36 223.437C1259.19 223.437 1262.44 221.687 1264.11 218.187C1265.77 214.52 1266.61 209.853 1266.61 204.187V152.437C1266.61 145.937 1268.86 140.52 1273.36 136.187C1277.86 131.687 1283.69 129.437 1290.86 129.437C1298.36 129.437 1304.11 131.687 1308.11 136.187C1312.27 140.52 1314.36 145.937 1314.36 152.437V234.437C1314.36 242.437 1312.52 248.853 1308.86 253.687C1305.36 258.353 1299.61 260.687 1291.61 260.687C1283.77 260.687 1277.61 258.353 1273.11 253.687C1268.77 248.853 1266.61 242.437 1266.61 234.437V230.187H1262.11C1262.11 239.853 1259.19 247.353 1253.36 252.687C1247.69 258.02 1240.02 260.687 1230.36 260.687ZM1371.82 260.687C1341.49 260.687 1326.32 238.353 1326.32 193.687C1326.32 174.353 1330.07 158.937 1337.57 147.437C1345.07 135.77 1356.32 129.937 1371.32 129.937C1379.49 129.937 1386.07 131.603 1391.07 134.937C1396.24 138.27 1400.24 142.853 1403.07 148.687C1406.07 154.353 1408.24 160.937 1409.57 168.437L1410.32 168.187V92.4368C1410.32 85.6035 1412.32 79.8535 1416.32 75.1868C1420.49 70.3535 1426.49 67.9368 1434.32 67.9368C1441.99 67.9368 1447.65 70.3535 1451.32 75.1868C1455.15 79.8535 1457.07 85.7702 1457.07 92.9368V205.437C1457.07 211.103 1457.49 216.353 1458.32 221.187C1459.32 225.853 1460.07 230.52 1460.57 235.187C1461.07 241.52 1459.74 247.02 1456.57 251.687C1453.57 256.187 1448.15 259.103 1440.32 260.437C1430.15 262.103 1422.57 260.353 1417.57 255.187C1412.74 250.02 1410.32 242.353 1410.32 232.187V222.937H1405.57C1405.57 235.103 1402.49 244.437 1396.32 250.937C1390.32 257.437 1382.15 260.687 1371.82 260.687ZM1368.07 191.437C1368.07 196.603 1369.65 200.437 1372.82 202.937C1375.99 205.437 1381.65 206.687 1389.82 206.687C1398.15 206.687 1403.9 205.437 1407.07 202.937C1410.24 200.437 1411.82 196.603 1411.82 191.437C1411.82 186.103 1410.24 182.27 1407.07 179.937C1404.07 177.437 1398.4 176.187 1390.07 176.187C1381.74 176.187 1375.99 177.437 1372.82 179.937C1369.65 182.27 1368.07 186.103 1368.07 191.437ZM1471.58 100.937C1471.58 93.7702 1473.75 88.0202 1478.08 83.6868C1482.58 79.1868 1488.75 76.9368 1496.58 76.9368C1504.92 76.9368 1511.08 79.1035 1515.08 83.4368C1519.25 87.7702 1521.33 93.5202 1521.33 100.687C1521.33 107.687 1519.25 113.353 1515.08 117.687C1511.08 121.853 1504.92 123.937 1496.58 123.937C1488.42 123.937 1482.17 121.853 1477.83 117.687C1473.67 113.353 1471.58 107.77 1471.58 100.937ZM1496.58 260.687C1488.75 260.687 1482.92 258.52 1479.08 254.187C1475.25 249.853 1473.33 244.437 1473.33 237.937V152.437C1473.33 145.27 1475.25 139.603 1479.08 135.437C1482.92 131.27 1488.75 129.187 1496.58 129.187C1504.42 129.187 1510.25 131.27 1514.08 135.437C1518.08 139.603 1520.08 145.103 1520.08 151.937V237.937C1520.08 244.437 1518 249.853 1513.83 254.187C1509.83 258.52 1504.08 260.687 1496.58 260.687ZM1594.42 261.187C1574.92 261.187 1559.34 255.437 1547.67 243.937C1536.17 232.27 1530.42 215.853 1530.42 194.687C1530.42 181.687 1533.09 170.27 1538.42 160.437C1543.75 150.603 1551.17 142.937 1560.67 137.437C1570.34 131.77 1581.59 128.937 1594.42 128.937C1608.75 128.937 1620.67 131.77 1630.17 137.437C1639.67 142.937 1646.75 150.603 1651.42 160.437C1656.25 170.27 1658.67 181.687 1658.67 194.687C1658.67 215.853 1653.34 232.27 1642.67 243.937C1632.17 255.437 1616.09 261.187 1594.42 261.187ZM1560.17 190.437C1560.17 195.603 1562.75 199.27 1567.92 201.437C1573.09 203.437 1581.92 204.437 1594.42 204.437C1606.92 204.437 1615.75 203.437 1620.92 201.437C1626.09 199.27 1628.67 195.603 1628.67 190.437C1628.67 185.437 1626.09 181.937 1620.92 179.937C1615.75 177.937 1606.92 176.937 1594.42 176.937C1581.92 176.937 1573.09 177.937 1567.92 179.937C1562.75 181.937 1560.17 185.437 1560.17 190.437Z" fill="#121212"/>
<path d="M55.75 255.437L53.2693 259.778L53.2912 259.791L53.3132 259.803L55.75 255.437ZM39.25 238.437L34.8382 240.79L34.8493 240.81L34.8605 240.831L39.25 238.437ZM33.25 168.187H38.25V162.466L32.5804 163.232L33.25 168.187ZM24 169.437L24.6608 174.393L24.6696 174.392L24 169.437ZM10.75 164.187L7.07034 167.572H7.07035L10.75 164.187ZM10.75 132.937L14.3599 136.396L14.3952 136.36L14.4297 136.322L10.75 132.937ZM24 127.687L24.6696 122.732L24.6608 122.731L24 127.687ZM33.25 128.937L32.5804 133.892L38.3348 134.669L38.2495 128.863L33.25 128.937ZM33 111.937L37.9995 111.863L37.9991 111.838L37.9984 111.812L33 111.937ZM38.75 96.1868L42.2095 99.7968L42.2479 99.76L42.2855 99.7224L38.75 96.1868ZM74 96.1868L70.5373 99.7937L70.5756 99.8305L70.6147 99.8665L74 96.1868ZM79.75 111.937L74.7562 111.687L74.7537 111.738L74.7522 111.79L79.75 111.937ZM79.25 128.937L74.2522 128.79L74.0794 134.663L79.9047 133.894L79.25 128.937ZM92.5 127.187L93.1547 132.144L93.1938 132.139L93.2327 132.133L92.5 127.187ZM113 132.187L109.464 135.722L109.497 135.755L109.529 135.786L113 132.187ZM93.25 169.937L93.9171 164.982L93.8936 164.978L93.8702 164.975L93.25 169.937ZM79.25 168.187L79.8702 163.225L74.25 162.523V168.187H79.25ZM81.5 211.437L77.6302 214.603L77.7048 214.694L77.7835 214.782L81.5 211.437ZM87 212.937L85.7117 208.106L85.6201 208.13L85.5296 208.158L87 212.937ZM94.75 208.687L91.7128 204.715L91.6542 204.76L91.597 204.806L94.75 208.687ZM120.5 212.437L116.5 215.437V215.437L120.5 212.437ZM120 245.187L116.032 242.145L116.024 242.155L116.017 242.165L120 245.187ZM104.25 256.937L102.24 252.359V252.359L104.25 256.937ZM79.75 261.437V256.437C71.7027 256.437 64.5522 254.624 58.1868 251.071L55.75 255.437L53.3132 259.803C61.2812 264.25 70.1306 266.437 79.75 266.437V261.437ZM55.75 255.437L58.2307 251.096C52.065 247.572 47.2127 242.593 43.6395 236.043L39.25 238.437L34.8605 240.831C39.2873 248.947 45.435 255.301 53.2693 259.778L55.75 255.437ZM39.25 238.437L43.6618 236.084C40.1109 229.426 38.25 221.511 38.25 212.187H33.25H28.25C28.25 222.863 30.3891 232.448 34.8382 240.79L39.25 238.437ZM33.25 212.187H38.25V168.187H33.25H28.25V212.187H33.25ZM33.25 168.187L32.5804 163.232L23.3304 164.482L24 169.437L24.6696 174.392L33.9196 173.142L33.25 168.187ZM24 169.437L23.3392 164.481C20.1726 164.903 17.3159 163.939 14.4297 160.802L10.75 164.187L7.07035 167.572C11.8507 172.768 17.8274 175.304 24.6608 174.393L24 169.437ZM10.75 164.187L14.4297 160.802C11.5482 157.67 10 153.677 10 148.437H5H2.68221e-07C2.68221e-07 155.864 2.28512 162.371 7.07034 167.572L10.75 164.187ZM5 148.437H10C10 143.194 11.5476 139.331 14.3599 136.396L10.75 132.937L7.14006 129.477C2.28576 134.543 2.68221e-07 141.013 2.68221e-07 148.437H5ZM10.75 132.937L14.4297 136.322C17.3159 133.185 20.1726 132.221 23.3392 132.643L24 127.687L24.6608 122.731C17.8274 121.82 11.8507 124.355 7.07035 129.552L10.75 132.937ZM24 127.687L23.3304 132.642L32.5804 133.892L33.25 128.937L33.9196 123.982L24.6696 122.732L24 127.687ZM33.25 128.937L38.2495 128.863L37.9995 111.863L33 111.937L28.0005 112.01L28.2505 129.01L33.25 128.937ZM33 111.937L37.9984 111.812C37.8592 106.24 39.4296 102.461 42.2095 99.7968L38.75 96.1868L35.2905 92.5769C30.0704 97.5795 27.8075 104.3 28.0016 112.062L33 111.937ZM38.75 96.1868L42.2855 99.7224C45.0536 96.9543 49.4255 95.1868 56.25 95.1868V90.1868V85.1868C47.7412 85.1868 40.4464 87.4194 35.2145 92.6513L38.75 96.1868ZM56.25 90.1868V95.1868C63.0604 95.1868 67.5741 96.9491 70.5373 99.7937L74 96.1868L77.4627 92.5799C72.0926 87.4246 64.7729 85.1868 56.25 85.1868V90.1868ZM74 96.1868L70.6147 99.8665C73.4881 102.51 75.0301 106.21 74.7562 111.687L79.75 111.937L84.7438 112.187C85.1366 104.331 82.8452 97.5303 77.3853 92.5072L74 96.1868ZM79.75 111.937L74.7522 111.79L74.2522 128.79L79.25 128.937L84.2478 129.084L84.7478 112.084L79.75 111.937ZM79.25 128.937L79.9047 133.894L93.1547 132.144L92.5 127.187L91.8453 122.23L78.5953 123.98L79.25 128.937ZM92.5 127.187L93.2327 132.133C101.303 130.937 106.305 132.563 109.464 135.722L113 132.187L116.536 128.651C110.362 122.477 101.697 120.77 91.7673 122.241L92.5 127.187ZM113 132.187L109.529 135.786C113.245 139.369 115 143.497 115 148.437H120H125C125 140.71 122.089 134.005 116.471 128.588L113 132.187ZM120 148.437H115C115 153.383 113.237 157.628 109.464 161.401L113 164.937L116.536 168.472C122.096 162.912 125 156.157 125 148.437H120ZM113 164.937L109.464 161.401C106.444 164.422 101.656 166.023 93.9171 164.982L93.25 169.937L92.5829 174.892C102.177 176.184 110.556 174.452 116.536 168.472L113 164.937ZM93.25 169.937L93.8702 164.975L79.8702 163.225L79.25 168.187L78.6298 173.148L92.6298 174.898L93.25 169.937ZM79.25 168.187H74.25V205.437H79.25H84.25V168.187H79.25ZM79.25 205.437H74.25C74.25 208.868 75.4722 211.965 77.6302 214.603L81.5 211.437L85.3698 208.271C84.5278 207.242 84.25 206.339 84.25 205.437H79.25ZM81.5 211.437L77.7835 214.782C79.0579 216.198 80.6862 217.341 82.6844 217.886C84.6786 218.43 86.6582 218.273 88.4704 217.716L87 212.937L85.5296 208.158C85.3445 208.215 85.2488 208.222 85.2293 208.222C85.2155 208.223 85.2519 208.221 85.3156 208.238C85.3796 208.255 85.415 208.278 85.4124 208.276C85.4051 208.271 85.336 208.225 85.2165 208.092L81.5 211.437ZM87 212.937L88.2883 217.768C91.6545 216.87 94.8595 215.04 97.903 212.567L94.75 208.687L91.597 204.806C89.3072 206.667 87.3455 207.67 85.7117 208.106L87 212.937ZM94.75 208.687L97.7873 212.659C99.5739 211.292 102.022 210.437 105.5 210.437V205.437V200.437C100.311 200.437 95.5928 201.748 91.7128 204.715L94.75 208.687ZM105.5 205.437V210.437C110.633 210.437 114.062 212.186 116.5 215.437L120.5 212.437L124.5 209.437C119.938 203.354 113.367 200.437 105.5 200.437V205.437ZM120.5 212.437L116.5 215.437C119.244 219.096 120.75 223.743 120.75 229.687H125.75H130.75C130.75 221.964 128.756 215.111 124.5 209.437L120.5 212.437ZM125.75 229.687H120.75C120.75 233.73 119.322 237.854 116.032 242.145L120 245.187L123.968 248.229C128.345 242.52 130.75 236.31 130.75 229.687H125.75ZM120 245.187L116.017 242.165C112.97 246.181 108.471 249.623 102.24 252.359L104.25 256.937L106.26 261.515C113.695 258.251 119.696 253.86 123.983 248.209L120 245.187ZM104.25 256.937L102.24 252.359C96.188 255.016 88.74 256.437 79.75 256.437V261.437V266.437C89.76 266.437 98.6453 264.858 106.26 261.515L104.25 256.937ZM143.139 254.187L139.47 257.584L139.535 257.654L139.603 257.722L143.139 254.187ZM143.139 75.1868L139.416 71.8491L139.383 71.8853L139.352 71.9221L143.139 75.1868ZM178.639 75.1868L174.721 78.2938L174.754 78.3346L174.787 78.3747L178.639 75.1868ZM184.639 167.937H179.639V172.937H184.639V167.937ZM189.139 167.937V172.937H194.139V167.937H189.139ZM194.139 145.437L189.92 142.752L189.891 142.799L189.863 142.845L194.139 145.437ZM207.389 133.687L209.393 138.268L209.425 138.253L209.458 138.239L207.389 133.687ZM246.889 137.437L243.412 141.03L243.47 141.087L243.531 141.142L246.889 137.437ZM257.639 156.937L252.76 158.032L252.771 158.079L252.782 158.126L257.639 156.937ZM253.889 254.437L257.354 258.041L257.357 258.038L253.889 254.437ZM218.639 254.437L215.103 257.972L215.138 258.007L215.173 258.041L218.639 254.437ZM188.139 179.937L192.357 182.621V182.621L188.139 179.937ZM178.139 254.187L174.537 250.719L174.535 250.721L178.139 254.187ZM160.639 260.687V255.687C154.352 255.687 149.889 253.866 146.674 250.651L143.139 254.187L139.603 257.722C145.055 263.174 152.259 265.687 160.639 265.687V260.687ZM143.139 254.187L146.807 250.79C143.551 247.273 141.889 243.01 141.889 237.687H136.889H131.889C131.889 245.364 134.393 252.101 139.47 257.584L143.139 254.187ZM136.889 237.687H141.889V92.9368H136.889H131.889V237.687H136.889ZM136.889 92.9368H141.889C141.889 87.0103 143.619 82.2868 146.926 78.4515L143.139 75.1868L139.352 71.9221C134.325 77.7535 131.889 84.8633 131.889 92.9368H136.889ZM143.139 75.1868L146.862 78.5246C150.052 74.9656 154.657 72.9368 161.389 72.9368V67.9368V62.9368C152.454 62.9368 144.892 65.7414 139.416 71.8491L143.139 75.1868ZM161.389 67.9368V72.9368C167.937 72.9368 172.064 74.943 174.721 78.2938L178.639 75.1868L182.556 72.0798C177.547 65.764 170.174 62.9368 161.389 62.9368V67.9368ZM178.639 75.1868L174.787 78.3747C177.94 82.1852 179.639 87.0089 179.639 93.1868H184.639H189.639C189.639 85.0314 187.337 77.8551 182.491 71.999L178.639 75.1868ZM184.639 93.1868H179.639V167.937H184.639H189.639V93.1868H184.639ZM184.639 167.937V172.937H189.139V167.937V162.937H184.639V167.937ZM189.139 167.937H194.139C194.139 158.943 195.729 152.459 198.415 148.028L194.139 145.437L189.863 142.845C185.882 149.414 184.139 157.931 184.139 167.937H189.139ZM194.139 145.437L198.357 148.121C201.39 143.355 205.076 140.156 209.393 138.268L207.389 133.687L205.385 129.106C199.034 131.884 193.887 136.519 189.92 142.752L194.139 145.437ZM207.389 133.687L209.458 138.239C214.352 136.014 219.232 134.937 224.139 134.937V129.937V124.937C217.712 124.937 211.426 126.36 205.32 129.135L207.389 133.687ZM224.139 129.937V134.937C233.354 134.937 239.491 137.235 243.412 141.03L246.889 137.437L250.366 133.844C243.953 127.638 234.923 124.937 224.139 124.937V129.937ZM246.889 137.437L243.531 141.142C247.982 145.175 251.115 150.702 252.76 158.032L257.639 156.937L262.517 155.842C260.496 146.838 256.462 139.365 250.246 133.732L246.889 137.437ZM257.639 156.937L252.782 158.126C254.674 165.851 255.639 174.363 255.639 183.687H260.639H265.639C265.639 173.678 264.603 164.356 262.495 155.747L257.639 156.937ZM260.639 183.687H255.639V237.687H260.639H265.639V183.687H260.639ZM260.639 237.687H255.639C255.639 243.302 253.844 247.538 250.42 250.835L253.889 254.437L257.357 258.038C262.933 252.669 265.639 245.738 265.639 237.687H260.639ZM253.889 254.437L250.423 250.833C247.218 253.915 242.731 255.687 236.389 255.687V260.687V265.687C244.713 265.687 251.893 263.292 257.354 258.041L253.889 254.437ZM236.389 260.687V255.687C229.845 255.687 225.289 253.895 222.104 250.833L218.639 254.437L215.173 258.041C220.655 263.312 227.933 265.687 236.389 265.687V260.687ZM218.639 254.437L222.174 250.901C218.89 247.617 217.139 243.361 217.139 237.687H212.139H207.139C207.139 245.679 209.72 252.59 215.103 257.972L218.639 254.437ZM212.139 237.687H217.139V193.437H212.139H207.139V237.687H212.139ZM212.139 193.437H217.139C217.139 186.873 215.875 181.056 212.735 176.57L208.639 179.437L204.543 182.304C206.069 184.485 207.139 188 207.139 193.437H212.139ZM208.639 179.437L212.735 176.57C209.356 171.742 204.318 169.437 198.389 169.437V174.437V179.437C201.459 179.437 203.255 180.465 204.543 182.304L208.639 179.437ZM198.389 174.437V169.437C192.252 169.437 187.21 172.083 183.92 177.252L188.139 179.937L192.357 182.621C193.734 180.457 195.525 179.437 198.389 179.437V174.437ZM188.139 179.937L183.92 177.252C180.943 181.931 179.639 187.603 179.639 193.937H184.639H189.639C189.639 188.937 190.668 185.276 192.357 182.621L188.139 179.937ZM184.639 193.937H179.639V237.687H184.639H189.639V193.937H184.639ZM184.639 237.687H179.639C179.639 242.951 177.934 247.191 174.537 250.719L178.139 254.187L181.74 257.655C187.01 252.182 189.639 245.422 189.639 237.687H184.639ZM178.139 254.187L174.535 250.721C171.533 253.843 167.137 255.687 160.639 255.687V260.687V265.687C169.141 265.687 176.411 263.197 181.743 257.652L178.139 254.187ZM280.357 160.937L275.946 158.584L275.93 158.613L275.915 158.642L280.357 160.937ZM302.857 137.437L300.361 133.105L300.345 133.114L300.329 133.123L302.857 137.437ZM366.107 134.687L364.018 139.229L364.035 139.237L364.052 139.245L366.107 134.687ZM386.107 150.187L382.095 153.17L382.114 153.195L382.133 153.22L386.107 150.187ZM386.357 188.187L383.451 184.118V184.118L386.357 188.187ZM313.107 193.187V188.187H308.107V193.187H313.107ZM318.107 203.937L314.869 207.747L314.915 207.785L314.961 207.823L318.107 203.937ZM347.107 206.937L345.999 202.061L345.974 202.067L345.949 202.073L347.107 206.937ZM358.107 204.687L359.002 209.606L359.086 209.591L359.17 209.573L358.107 204.687ZM387.357 210.687L383.635 214.025L383.664 214.057L383.693 214.089L387.357 210.687ZM378.607 253.187L376.228 248.789L376.213 248.797L376.198 248.806L378.607 253.187ZM306.607 254.687L304.556 259.246L304.57 259.253L304.584 259.259L306.607 254.687ZM282.107 233.437L277.904 236.144L277.914 236.161L277.925 236.177L282.107 233.437ZM356.107 181.437L351.3 182.81L351.344 182.966L351.399 183.118L356.107 181.437ZM350.107 174.187L347.107 178.187V178.187L350.107 174.187ZM319.107 175.187L315.839 171.403L315.796 171.44L315.753 171.479L319.107 175.187ZM313.857 184.937H308.857V189.937H313.857V184.937ZM272.607 195.687H277.607C277.607 183.183 280.057 172.411 284.8 163.232L280.357 160.937L275.915 158.642C270.325 169.463 267.607 181.857 267.607 195.687H272.607ZM280.357 160.937L284.769 163.29C289.673 154.095 296.526 146.944 305.386 141.75L302.857 137.437L300.329 133.123C289.856 139.263 281.708 147.779 275.946 158.584L280.357 160.937ZM302.857 137.437L305.354 141.769C314.296 136.616 325.067 133.937 337.857 133.937V128.937V123.937C323.648 123.937 311.086 126.924 300.361 133.105L302.857 137.437ZM337.857 128.937V133.937C347.74 133.937 356.428 135.738 364.018 139.229L366.107 134.687L368.197 130.144C359.12 125.969 348.975 123.937 337.857 123.937V128.937ZM366.107 134.687L364.052 139.245C371.895 142.782 377.842 147.45 382.095 153.17L386.107 150.187L390.12 147.203C384.706 139.923 377.32 134.259 368.163 130.129L366.107 134.687ZM386.107 150.187L382.133 153.22C386.329 158.719 388.357 164.662 388.357 171.187H393.357H398.357C398.357 162.379 395.553 154.322 390.082 147.153L386.107 150.187ZM393.357 171.187H388.357C388.357 178.258 386.33 182.062 383.451 184.118L386.357 188.187L389.264 192.255C395.718 187.645 398.357 180.115 398.357 171.187H393.357ZM386.357 188.187L383.451 184.118C380.004 186.581 374.306 188.187 365.607 188.187V193.187V198.187C375.242 198.187 383.378 196.46 389.264 192.255L386.357 188.187ZM365.607 193.187V188.187H313.107V193.187V198.187H365.607V193.187ZM313.107 193.187H308.107C308.107 199.003 310.431 203.974 314.869 207.747L318.107 203.937L321.346 200.127C319.118 198.233 318.107 196.037 318.107 193.187H313.107ZM318.107 203.937L314.961 207.823C319.831 211.765 327.12 213.187 335.607 213.187V208.187V203.187C327.762 203.187 323.384 201.776 321.253 200.051L318.107 203.937ZM335.607 208.187V213.187C340.104 213.187 344.332 212.737 348.266 211.801L347.107 206.937L345.949 202.073C342.883 202.803 339.444 203.187 335.607 203.187V208.187ZM347.107 206.937L348.216 211.812C351.812 210.995 355.407 210.26 359.002 209.606L358.107 204.687L357.213 199.767C353.474 200.447 349.736 201.212 345.999 202.061L347.107 206.937ZM358.107 204.687L359.17 209.573C362.596 208.828 366.483 208.437 370.857 208.437V203.437V198.437C365.899 198.437 361.286 198.879 357.045 199.801L358.107 204.687ZM370.857 203.437V208.437C376.147 208.437 380.278 210.281 383.635 214.025L387.357 210.687L391.08 207.349C385.77 201.426 378.901 198.437 370.857 198.437V203.437ZM387.357 210.687L383.693 214.089C386.93 217.574 388.857 222.715 388.857 230.187H393.857H398.857C398.857 220.992 396.452 213.133 391.021 207.285L387.357 210.687ZM393.857 230.187H388.857C388.857 237.827 385.121 243.978 376.228 248.789L378.607 253.187L380.987 257.585C392.427 251.395 398.857 242.214 398.857 230.187H393.857ZM378.607 253.187L376.198 248.806C367.186 253.762 354.939 256.437 339.107 256.437V261.437V266.437C355.942 266.437 370.029 263.612 381.017 257.568L378.607 253.187ZM339.107 261.437V256.437C328.28 256.437 318.138 254.323 308.631 250.115L306.607 254.687L304.584 259.259C315.41 264.051 326.935 266.437 339.107 266.437V261.437ZM306.607 254.687L308.659 250.127C299.576 246.04 292.13 239.611 286.29 230.697L282.107 233.437L277.925 236.177C284.751 246.596 293.639 254.334 304.556 259.246L306.607 254.687ZM282.107 233.437L286.311 230.729C280.636 221.919 277.607 210.353 277.607 195.687H272.607H267.607C267.607 211.687 270.912 225.288 277.904 236.144L282.107 233.437ZM353.607 184.937V189.937C355.297 189.937 358.3 189.595 360.176 186.968C362.068 184.319 361.387 181.355 360.816 179.755L356.107 181.437L351.399 183.118C351.488 183.368 351.42 183.288 351.42 182.968C351.42 182.597 351.518 181.884 352.039 181.156C352.557 180.431 353.19 180.114 353.518 179.999C353.803 179.899 353.885 179.937 353.607 179.937V184.937ZM356.107 181.437L360.915 180.063C359.8 176.161 356.751 172.919 353.107 170.187L350.107 174.187L347.107 178.187C350.131 180.454 351.081 182.046 351.3 182.81L356.107 181.437ZM350.107 174.187L353.107 170.187C348.563 166.778 342.491 165.437 335.607 165.437V170.437V175.437C341.391 175.437 344.986 176.595 347.107 178.187L350.107 174.187ZM335.607 170.437V165.437C327.668 165.437 320.781 167.135 315.839 171.403L319.107 175.187L322.376 178.971C324.768 176.905 328.88 175.437 335.607 175.437V170.437ZM319.107 175.187L315.753 171.479C311.653 175.189 308.857 179.683 308.857 184.937H313.857H318.857C318.857 183.524 319.562 181.518 322.462 178.895L319.107 175.187ZM313.857 184.937V189.937H353.607V184.937V179.937H313.857V184.937ZM418.399 249.837L422.291 246.698V246.698L418.399 249.837ZM423.999 18.4868L420.745 14.6905L420.723 14.7099L420.7 14.7296L423.999 18.4868ZM491.549 18.4868L488.111 22.1166L488.134 22.1389L488.158 22.1608L491.549 18.4868ZM511.499 58.3868L516.372 57.2657L516.371 57.2625L511.499 58.3868ZM538.799 177.037L533.927 178.158L534.819 182.037H538.799V177.037ZM547.899 177.037V182.037H551.879L552.772 178.158L547.899 177.037ZM575.199 58.3868L570.327 57.2625L570.327 57.2657L575.199 58.3868ZM595.149 18.4868L591.804 14.7703L591.781 14.7914L591.758 14.8128L595.149 18.4868ZM663.049 18.4868L659.75 22.244L659.773 22.2637L659.795 22.2831L663.049 18.4868ZM668.649 249.837L664.818 246.624L664.787 246.661L664.757 246.698L668.649 249.837ZM614.749 249.837L618.52 246.553L614.749 249.837ZM604.249 120.337L599.368 121.421L599.444 121.764L599.568 122.092L604.249 120.337ZM595.149 120.337L599.621 122.573L599.672 122.471L599.718 122.368L595.149 120.337ZM593.049 126.637L588.146 125.656L588.123 125.773L588.105 125.891L593.049 126.637ZM579.749 214.837L584.678 215.678L584.686 215.63L584.693 215.582L579.749 214.837ZM573.799 239.687L569.056 238.106L569.039 238.155L569.024 238.205L573.799 239.687ZM563.649 255.437L566.649 259.437L566.712 259.39L566.773 259.341L563.649 255.437ZM523.049 255.437L519.926 259.341L520.032 259.426L520.143 259.505L523.049 255.437ZM512.549 239.687L507.76 241.124L507.789 241.221L507.822 241.317L512.549 239.687ZM507.299 214.837L512.247 214.113L512.244 214.092L512.24 214.072L507.299 214.837ZM493.649 126.637L488.674 127.134L488.687 127.268L488.708 127.402L493.649 126.637ZM491.899 120.337L487.33 122.368L487.376 122.471L487.427 122.573L491.899 120.337ZM482.449 120.337L487.131 122.092L487.163 122.006L487.193 121.918L482.449 120.337ZM471.949 249.837L468.179 246.553L468.148 246.588L468.118 246.624L471.949 249.837ZM445.349 260.687V255.687C434.229 255.687 426.901 252.414 422.291 246.698L418.399 249.837L414.507 252.976C421.564 261.726 432.202 265.687 445.349 265.687V260.687ZM418.399 249.837L422.291 246.698C417.369 240.594 414.649 232.13 414.649 220.787H409.649H404.649C404.649 233.71 407.763 244.613 414.507 252.976L418.399 249.837ZM409.649 220.787H414.649V57.6868H409.649H404.649V220.787H409.649ZM409.649 57.6868H414.649C414.649 40.8053 419.187 29.3661 427.298 22.244L423.999 18.4868L420.7 14.7296C409.678 24.4075 404.649 39.1017 404.649 57.6868H409.649ZM423.999 18.4868L427.253 22.2831C436.1 14.6999 446.596 10.8868 458.999 10.8868V5.88681V0.88681C444.335 0.88681 431.498 5.47374 420.745 14.6905L423.999 18.4868ZM458.999 5.88681V10.8868C470.625 10.8868 480.223 14.6445 488.111 22.1166L491.549 18.4868L494.988 14.8571C485.142 5.52916 473.04 0.88681 458.999 0.88681V5.88681ZM491.549 18.4868L488.158 22.1608C496.232 29.6137 502.545 41.8234 506.627 59.5111L511.499 58.3868L516.371 57.2625C512.053 38.5503 505.067 24.16 494.941 14.8128L491.549 18.4868ZM511.499 58.3868L506.627 59.508L533.927 178.158L538.799 177.037L543.672 175.916L516.372 57.2657L511.499 58.3868ZM538.799 177.037V182.037H547.899V177.037V172.037H538.799V177.037ZM547.899 177.037L552.772 178.158L580.072 59.508L575.199 58.3868L570.327 57.2657L543.027 175.916L547.899 177.037ZM575.199 58.3868L580.071 59.5111C584.153 41.8234 590.467 29.6137 598.541 22.1608L595.149 18.4868L591.758 14.8128C581.632 24.16 574.646 38.5503 570.327 57.2625L575.199 58.3868ZM595.149 18.4868L598.494 22.2033C606.887 14.6495 616.771 10.8868 628.399 10.8868V5.88681V0.88681C614.361 0.88681 602.078 5.52417 591.804 14.7703L595.149 18.4868ZM628.399 5.88681V10.8868C640.802 10.8868 651.156 14.6983 659.75 22.244L663.049 18.4868L666.348 14.7296C655.809 5.4753 643.063 0.88681 628.399 0.88681V5.88681ZM663.049 18.4868L659.795 22.2831C668.116 29.4153 672.749 40.8412 672.749 57.6868H677.749H682.749C682.749 39.0657 677.582 24.3584 666.303 14.6905L663.049 18.4868ZM677.749 57.6868H672.749V220.787H677.749H682.749V57.6868H677.749ZM677.749 220.787H672.749C672.749 232.087 669.936 240.522 664.818 246.624L668.649 249.837L672.48 253.05C679.496 244.685 682.749 233.753 682.749 220.787H677.749ZM668.649 249.837L664.757 246.698C660.147 252.414 652.819 255.687 641.699 255.687V260.687V265.687C654.846 265.687 665.485 261.726 672.541 252.976L668.649 249.837ZM641.699 260.687V255.687C631.138 255.687 623.667 252.463 618.52 246.553L614.749 249.837L610.979 253.121C618.431 261.677 628.928 265.687 641.699 265.687V260.687ZM614.749 249.837L618.52 246.553C613.205 240.451 610.299 232.043 610.299 220.787H605.299H600.299C600.299 233.798 603.693 244.756 610.979 253.121L614.749 249.837ZM605.299 220.787H610.299V126.637H605.299H600.299V220.787H605.299ZM605.299 126.637H610.299C610.299 123.804 609.874 121.096 608.931 118.581L604.249 120.337L599.568 122.092C600.025 123.311 600.299 124.803 600.299 126.637H605.299ZM604.249 120.337L609.13 119.252C608.672 117.191 607.571 115.223 605.608 113.863C603.744 112.573 601.614 112.187 599.699 112.187V117.187V122.187C600.351 122.187 600.263 122.326 599.916 122.085C599.735 121.96 599.579 121.795 599.471 121.623C599.37 121.462 599.357 121.371 599.368 121.421L604.249 120.337ZM599.699 117.187V112.187C597.778 112.187 595.848 112.682 594.141 113.863C592.463 115.025 591.328 116.623 590.58 118.306L595.149 120.337L599.718 122.368C599.811 122.158 599.882 122.058 599.905 122.028C599.925 122.003 599.904 122.036 599.833 122.085C599.799 122.108 599.762 122.13 599.723 122.148C599.685 122.167 599.651 122.178 599.628 122.185C599.578 122.2 599.592 122.187 599.699 122.187V117.187ZM595.149 120.337L590.677 118.101C589.52 120.416 588.688 122.947 588.146 125.656L593.049 126.637L597.952 127.617C598.344 125.66 598.912 123.991 599.621 122.573L595.149 120.337ZM593.049 126.637L588.105 125.891L574.805 214.091L579.749 214.837L584.693 215.582L597.993 127.382L593.049 126.637ZM579.749 214.837L574.821 213.995C573.218 223.384 571.288 231.409 569.056 238.106L573.799 239.687L578.543 241.268C580.977 233.965 583.014 225.423 584.678 215.678L579.749 214.837ZM573.799 239.687L569.024 238.205C567.164 244.198 564.276 248.532 560.526 251.532L563.649 255.437L566.773 259.341C572.355 254.875 576.234 248.709 578.575 241.169L573.799 239.687ZM563.649 255.437L560.649 251.437C557.194 254.028 551.666 255.687 543.349 255.687V260.687V265.687C552.766 265.687 560.771 263.845 566.649 259.437L563.649 255.437ZM543.349 260.687V255.687C535.323 255.687 529.712 254.051 525.955 251.368L523.049 255.437L520.143 259.505C526.187 263.823 534.108 265.687 543.349 265.687V260.687ZM523.049 255.437L526.173 251.532C522.38 248.498 519.363 244.108 517.276 238.057L512.549 239.687L507.822 241.317C510.403 248.799 514.385 254.909 519.926 259.341L523.049 255.437ZM512.549 239.687L517.338 238.25C515.327 231.544 513.622 223.51 512.247 214.113L507.299 214.837L502.352 215.561C503.777 225.297 505.572 233.83 507.76 241.124L512.549 239.687ZM507.299 214.837L512.24 214.072L498.59 125.872L493.649 126.637L488.708 127.402L502.358 215.602L507.299 214.837ZM493.649 126.637L498.624 126.139C498.338 123.275 497.608 120.575 496.371 118.101L491.899 120.337L487.427 122.573C488.057 123.832 488.494 125.332 488.674 127.134L493.649 126.637ZM491.899 120.337L496.468 118.306C495.679 116.531 494.456 114.912 492.678 113.768C490.905 112.629 488.929 112.187 486.999 112.187V117.187V122.187C487.209 122.187 487.313 122.21 487.339 122.217C487.358 122.222 487.326 122.216 487.27 122.18C487.215 122.145 487.189 122.113 487.192 122.117C487.199 122.126 487.254 122.195 487.33 122.368L491.899 120.337ZM486.999 117.187V112.187C485.085 112.187 483.058 112.623 481.266 113.863C479.451 115.12 478.328 116.89 477.706 118.756L482.449 120.337L487.193 121.918C487.236 121.787 487.258 121.778 487.216 121.836C487.17 121.902 487.083 121.998 486.958 122.085C486.834 122.171 486.739 122.202 486.718 122.208C486.705 122.211 486.787 122.187 486.999 122.187V117.187ZM482.449 120.337L477.768 118.581C476.825 121.096 476.399 123.804 476.399 126.637H481.399H486.399C486.399 124.803 486.674 123.311 487.131 122.092L482.449 120.337ZM481.399 126.637H476.399V220.787H481.399H486.399V126.637H481.399ZM481.399 220.787H476.399C476.399 232.043 473.493 240.451 468.179 246.553L471.949 249.837L475.72 253.121C483.005 244.756 486.399 233.798 486.399 220.787H481.399ZM471.949 249.837L468.118 246.624C463.222 252.462 455.918 255.687 445.349 255.687V260.687V265.687C458.114 265.687 468.543 261.678 475.78 253.05L471.949 249.837ZM707.177 187.187L703.186 184.174L703.165 184.202L703.145 184.23L707.177 187.187ZM735.877 157.787L738.946 161.734L738.973 161.713L739 161.691L735.877 157.787ZM770.877 133.287L773.506 137.54L778.577 134.405L774.606 129.957L770.877 133.287ZM751.627 115.787L748.605 119.77L748.637 119.795L748.67 119.819L751.627 115.787ZM730.977 100.037L727.789 103.889L727.86 103.948L727.934 104.005L730.977 100.037ZM711.377 80.4368L707.449 83.5312L707.501 83.5971L707.555 83.6612L711.377 80.4368ZM698.777 56.2868L693.95 57.5914L693.954 57.6082L693.959 57.625L698.777 56.2868ZM698.777 31.4368L694.019 29.8977L693.999 29.9616L693.98 30.026L698.777 31.4368ZM714.177 11.8368L716.95 15.9971L716.99 15.9707L717.029 15.9437L714.177 11.8368ZM739.727 5.53682L738.797 10.4497L738.862 10.4619L738.926 10.4724L739.727 5.53682ZM764.227 17.7868L760.926 21.5426L760.959 21.5713L760.992 21.5994L764.227 17.7868ZM784.177 42.6368L779.811 45.0737L779.83 45.108L779.849 45.142L784.177 42.6368ZM799.227 68.1868L794.939 70.7593L794.956 70.7869L794.973 70.8143L799.227 68.1868ZM813.577 90.2368L809.461 93.0755L812.803 97.9227L817.045 93.8384L813.577 90.2368ZM827.227 73.0868L831.659 75.3997L831.679 75.3614L831.699 75.3229L827.227 73.0868ZM834.577 54.8868L829.868 53.2052L829.841 53.2805L829.816 53.3568L834.577 54.8868ZM844.377 32.1368L848.873 34.3241L848.889 34.2917L848.904 34.259L844.377 32.1368ZM858.727 14.2868L861.677 18.3238L861.69 18.3142L861.703 18.3046L858.727 14.2868ZM879.727 6.2368L879.274 1.25735H879.274L879.727 6.2368ZM902.477 12.1868L899.827 16.4268L899.875 16.457L899.924 16.4861L902.477 12.1868ZM917.177 30.7368L912.38 32.1477L912.405 32.2333L912.433 32.318L917.177 30.7368ZM917.527 55.5868L912.691 54.3144L912.675 54.3742L912.661 54.4345L917.527 55.5868ZM904.577 80.7868L908.401 84.0075L908.419 83.9865L908.436 83.9654L904.577 80.7868ZM877.277 104.587L879.985 108.79L879.997 108.782L880.008 108.775L877.277 104.587ZM844.027 122.787L841.937 118.244L835.115 121.382L840.641 126.466L844.027 122.787ZM907.727 186.487L903.638 189.364V189.364L907.727 186.487ZM919.977 224.637L914.984 224.365L914.982 224.41L914.98 224.455L919.977 224.637ZM902.827 254.737L905.5 258.962L905.54 258.937L905.58 258.911L902.827 254.737ZM867.477 258.937L869.193 254.241V254.241L867.477 258.937ZM835.627 231.987L831.444 234.727L831.461 234.752L831.477 234.777L835.627 231.987ZM813.577 196.987L809.211 199.424L809.245 199.484L809.28 199.544L813.577 196.987ZM797.127 168.637L801.404 166.048L796.21 157.466L792.484 166.78L797.127 168.637ZM792.227 184.737L787.355 183.613L787.334 183.702L787.317 183.793L792.227 184.737ZM786.977 205.737L782.18 204.326L782.161 204.391L782.143 204.457L786.977 205.737ZM776.127 233.387L771.635 231.191L771.61 231.241L771.587 231.292L776.127 233.387ZM758.627 254.387L761.277 258.627L761.324 258.597L761.37 258.567L758.627 254.387ZM734.477 260.687L734.746 255.694L734.679 255.69L734.612 255.689L734.477 260.687ZM709.627 251.587L706.537 255.518L706.6 255.568L706.665 255.615L709.627 251.587ZM696.677 233.037L691.826 234.25L691.849 234.341L691.875 234.431L696.677 233.037ZM696.677 209.937L701.544 211.082L701.547 211.066L701.551 211.051L696.677 209.937ZM707.177 187.187L711.167 190.2C719.556 179.09 728.818 169.611 738.946 161.734L735.877 157.787L732.807 153.84C721.935 162.296 712.064 172.417 703.186 184.174L707.177 187.187ZM735.877 157.787L739 161.691C749.325 153.431 760.824 145.38 773.506 137.54L770.877 133.287L768.247 129.034C755.263 137.061 743.428 145.342 732.753 153.882L735.877 157.787ZM770.877 133.287L774.606 129.957C768.543 123.165 761.867 117.096 754.583 111.755L751.627 115.787L748.67 119.819C755.386 124.744 761.544 130.342 767.147 136.617L770.877 133.287ZM751.627 115.787L754.648 111.803C747.889 106.675 741.012 101.43 734.019 96.0688L730.977 100.037L727.934 104.005C734.941 109.376 741.831 114.632 748.605 119.77L751.627 115.787ZM730.977 100.037L734.164 96.1848C727.651 90.7945 721.327 84.4765 715.198 77.2125L711.377 80.4368L707.555 83.6612C714.026 91.3305 720.769 98.0791 727.789 103.889L730.977 100.037ZM711.377 80.4368L715.304 77.3425C709.597 70.0984 705.729 62.6352 703.594 54.9486L698.777 56.2868L693.959 57.625C696.49 66.7384 701.023 75.3752 707.449 83.5312L711.377 80.4368ZM698.777 56.2868L703.603 54.9823C701.49 47.1642 701.522 39.824 703.573 32.8477L698.777 31.4368L693.98 30.026C691.365 38.9163 691.396 48.1428 693.95 57.5914L698.777 56.2868ZM698.777 31.4368L703.534 32.9759C705.715 26.2334 710.079 20.578 716.95 15.9971L714.177 11.8368L711.403 7.67657C702.875 13.3623 696.971 20.7735 694.019 29.8977L698.777 31.4368ZM714.177 11.8368L717.029 15.9437C724.523 10.7393 731.698 9.10664 738.797 10.4497L739.727 5.53682L740.656 0.623962C730.488 -1.29968 720.63 1.26761 711.325 7.72997L714.177 11.8368ZM739.727 5.53682L738.926 10.4724C746.482 11.6976 753.809 15.2879 760.926 21.5426L764.227 17.7868L767.527 14.031C759.245 6.75237 750.238 2.17603 740.527 0.601288L739.727 5.53682ZM764.227 17.7868L760.992 21.5994C768.177 27.696 774.462 35.4916 779.811 45.0737L784.177 42.6368L788.543 40.2C782.691 29.7154 775.676 20.9443 767.461 13.9743L764.227 17.7868ZM784.177 42.6368L779.849 45.142C784.995 54.0295 790.025 62.5687 794.939 70.7593L799.227 68.1868L803.514 65.6143C798.628 57.4716 793.625 48.9774 788.504 40.1316L784.177 42.6368ZM799.227 68.1868L794.973 70.8143C799.911 78.8099 804.74 86.2311 809.461 93.0755L813.577 90.2368L817.693 87.3982C813.08 80.7092 808.342 73.4304 803.481 65.5594L799.227 68.1868ZM813.577 90.2368L817.045 93.8384C823.576 87.5487 828.525 81.4067 831.659 75.3997L827.227 73.0868L822.794 70.774C820.328 75.5003 816.177 80.7916 810.108 86.6352L813.577 90.2368ZM827.227 73.0868L831.699 75.3229C834.623 69.4747 837.166 63.1697 839.337 56.4169L834.577 54.8868L829.816 53.3568C827.787 59.6706 825.43 65.4989 822.754 70.8508L827.227 73.0868ZM834.577 54.8868L839.285 56.5685C841.539 50.2586 844.725 42.8503 848.873 34.3241L844.377 32.1368L839.88 29.9495C835.628 38.69 832.281 46.4483 829.868 53.2052L834.577 54.8868ZM844.377 32.1368L848.904 34.259C852.083 27.4771 856.353 22.2143 861.677 18.3238L858.727 14.2868L855.776 10.2498C848.967 15.226 843.67 21.8632 839.849 30.0146L844.377 32.1368ZM858.727 14.2868L861.703 18.3046C867.277 14.1758 873.406 11.832 880.179 11.2163L879.727 6.2368L879.274 1.25735C870.647 2.0416 862.777 5.06448 855.75 10.269L858.727 14.2868ZM879.727 6.2368L880.179 11.2163C886.644 10.6286 893.151 12.2547 899.827 16.4268L902.477 12.1868L905.127 7.94682C896.869 2.78561 888.209 0.445068 879.274 1.25735L879.727 6.2368ZM902.477 12.1868L899.924 16.4861C906.364 20.3102 910.422 25.4912 912.38 32.1477L917.177 30.7368L921.973 29.326C919.265 20.1158 913.522 12.9301 905.029 7.88754L902.477 12.1868ZM917.177 30.7368L912.433 32.318C914.654 38.9799 914.81 46.2619 912.691 54.3144L917.527 55.5868L922.362 56.8593C924.91 47.1784 924.833 37.8937 921.92 29.1557L917.177 30.7368ZM917.527 55.5868L912.661 54.4345C910.759 62.4676 906.827 70.1887 900.717 77.6083L904.577 80.7868L908.436 83.9654C915.393 75.5183 920.095 66.4393 922.392 56.7392L917.527 55.5868ZM904.577 80.7868L900.752 77.5661C893.632 86.0215 884.912 93.6381 874.545 100.399L877.277 104.587L880.008 108.775C891.108 101.536 900.588 93.2855 908.401 84.0075L904.577 80.7868ZM877.277 104.587L874.568 100.384C864.272 107.019 853.396 112.973 841.937 118.244L844.027 122.787L846.116 127.329C857.991 121.867 869.282 115.688 879.985 108.79L877.277 104.587ZM844.027 122.787L840.641 126.466C852.338 137.227 863.687 147.407 874.69 157.005L877.977 153.237L881.263 149.469C870.333 139.934 859.049 129.813 847.412 119.107L844.027 122.787ZM877.977 153.237L874.69 157.005C885.337 166.293 894.988 177.073 903.638 189.364L907.727 186.487L911.816 183.609C902.732 170.701 892.549 159.314 881.263 149.469L877.977 153.237ZM907.727 186.487L903.638 189.364C911.991 201.235 915.611 212.864 914.984 224.365L919.977 224.637L924.969 224.909C925.742 210.743 921.196 196.939 911.816 183.609L907.727 186.487ZM919.977 224.637L914.98 224.455C914.574 235.63 909.728 244.195 900.074 250.563L902.827 254.737L905.58 258.911C917.859 250.812 924.446 239.311 924.973 224.819L919.977 224.637ZM902.827 254.737L900.153 250.511C889.959 256.961 879.791 258.113 869.193 254.241L867.477 258.937L865.761 263.633C879.429 268.627 892.828 266.979 905.5 258.962L902.827 254.737ZM867.477 258.937L869.193 254.241C858.285 250.255 848.442 242.086 839.776 229.197L835.627 231.987L831.477 234.777C841.011 248.955 852.401 258.752 865.761 263.633L867.477 258.937ZM835.627 231.987L839.809 229.247C830.967 215.751 823.658 204.148 817.873 194.429L813.577 196.987L809.28 199.544C815.162 209.425 822.553 221.156 831.444 234.727L835.627 231.987ZM813.577 196.987L817.943 194.55C812.317 184.471 806.804 174.97 801.404 166.048L797.127 168.637L792.849 171.226C798.182 180.037 803.636 189.436 809.211 199.424L813.577 196.987ZM797.127 168.637L792.484 166.78C790.503 171.733 788.799 177.352 787.355 183.613L792.227 184.737L797.099 185.861C798.454 179.988 800.017 174.874 801.769 170.494L797.127 168.637ZM792.227 184.737L787.317 183.793C786.188 189.66 784.482 196.499 782.18 204.326L786.977 205.737L791.773 207.148C794.138 199.108 795.932 191.947 797.137 185.681L792.227 184.737ZM786.977 205.737L782.143 204.457C780.154 211.973 776.679 220.872 771.635 231.191L776.127 233.387L780.618 235.583C785.84 224.902 789.6 215.367 791.81 207.016L786.977 205.737ZM776.127 233.387L771.587 231.292C767.729 239.649 762.475 245.881 755.883 250.207L758.627 254.387L761.37 258.567C769.711 253.093 776.124 245.325 780.666 235.482L776.127 233.387ZM758.627 254.387L755.977 250.147C749.365 254.279 742.332 256.104 734.746 255.694L734.477 260.687L734.207 265.68C743.888 266.203 752.954 263.828 761.277 258.627L758.627 254.387ZM734.477 260.687L734.612 255.689C727.136 255.487 719.82 252.876 712.589 247.559L709.627 251.587L706.665 255.615C715.3 261.965 724.55 265.42 734.341 265.685L734.477 260.687ZM709.627 251.587L712.716 247.655C706.916 243.098 703.257 237.769 701.478 231.643L696.677 233.037L691.875 234.431C694.296 242.772 699.271 249.809 706.537 255.518L709.627 251.587ZM696.677 233.037L701.527 231.824C699.865 225.176 699.849 218.286 701.544 211.082L696.677 209.937L691.809 208.792C689.771 217.454 689.754 225.964 691.826 234.25L696.677 233.037ZM696.677 209.937L701.551 211.051C703.26 203.574 706.464 196.614 711.209 190.144L707.177 187.187L703.145 184.23C697.623 191.76 693.827 199.967 691.802 208.823L696.677 209.937ZM964.275 260.687L963.102 265.547L963.151 265.559L963.2 265.57L964.275 260.687ZM941.025 249.937L937.771 253.733L937.803 253.76L937.835 253.787L941.025 249.937ZM938.775 212.437L942.439 215.839V215.839L938.775 212.437ZM969.525 207.687L967.944 212.43L968.047 212.465L968.152 212.494L969.525 207.687ZM984.275 211.687L983.026 216.528V216.528L984.275 211.687ZM1011.78 212.937L1013.09 217.761L1013.29 217.706L1013.48 217.636L1011.78 212.937ZM1011.03 205.437L1009.55 210.216L1009.6 210.231L1009.65 210.244L1011.03 205.437ZM999.775 202.937L998.821 207.845L998.837 207.848L998.854 207.851L999.775 202.937ZM981.775 199.437L980.795 204.34L980.808 204.342L980.821 204.345L981.775 199.437ZM959.775 193.687L958.094 198.396L958.16 198.419L958.227 198.441L959.775 193.687ZM942.275 182.687L938.616 186.094L938.647 186.127L938.678 186.16L942.275 182.687ZM950.525 136.437L947.882 132.193L947.866 132.203L947.85 132.213L950.525 136.437ZM1024.03 130.187L1022.81 135.038L1022.82 135.04L1022.83 135.043L1024.03 130.187ZM1045.03 139.937L1041.81 143.768L1041.85 143.799L1041.89 143.829L1045.03 139.937ZM1052.78 155.687H1047.78V155.748L1047.78 155.809L1052.78 155.687ZM1047.28 172.187L1043.6 168.802V168.802L1047.28 172.187ZM1020.03 176.937L1018.68 181.752L1018.79 181.783L1018.9 181.809L1020.03 176.937ZM1006.28 173.437L1004.95 178.257L1005.04 178.283L1005.14 178.306L1006.28 173.437ZM989.525 171.187L989.156 176.173L989.275 176.182L989.394 176.185L989.525 171.187ZM978.525 171.937L977.115 167.14V167.14L978.525 171.937ZM979.275 180.187L978.063 185.038L978.178 185.066L978.295 185.09L979.275 180.187ZM994.275 182.937L995.176 178.019L995.157 178.015L995.137 178.012L994.275 182.937ZM1012.03 186.187L1011.12 191.105L1011.16 191.111L1011.19 191.117L1012.03 186.187ZM1037.78 193.187L1035.73 197.751L1035.81 197.783L1035.88 197.813L1037.78 193.187ZM1051.78 204.437L1056.09 201.908V201.908L1051.78 204.437ZM1048.28 246.687L1044.49 243.424L1044.48 243.433L1048.28 246.687ZM1027.28 259.687L1028.78 264.456V264.456L1027.28 259.687ZM996.275 263.937V258.937C985.087 258.937 974.786 257.883 965.351 255.804L964.275 260.687L963.2 265.57C973.432 267.824 984.464 268.937 996.275 268.937V263.937ZM964.275 260.687L965.449 255.826C956.3 253.618 949.309 250.307 944.215 246.087L941.025 249.937L937.835 253.787C944.409 259.234 952.917 263.089 963.102 265.547L964.275 260.687ZM941.025 249.937L944.279 246.141C939.631 242.156 937.275 236.998 937.275 230.187H932.275H927.275C927.275 239.709 930.753 247.717 937.771 253.733L941.025 249.937ZM932.275 230.187H937.275C937.275 224.111 939.074 219.463 942.439 215.839L938.775 212.437L935.111 209.035C929.81 214.744 927.275 221.929 927.275 230.187H932.275ZM938.775 212.437L942.439 215.839C945.703 212.324 950.057 210.437 956.025 210.437V205.437V200.437C947.661 200.437 940.514 203.216 935.111 209.035L938.775 212.437ZM956.025 205.437V210.437C959.959 210.437 963.926 211.091 967.944 212.43L969.525 207.687L971.107 202.943C966.124 201.283 961.091 200.437 956.025 200.437V205.437ZM969.525 207.687L968.152 212.494C972.864 213.841 977.822 215.185 983.026 216.528L984.275 211.687L985.525 206.845C980.396 205.522 975.521 204.2 970.899 202.879L969.525 207.687ZM984.275 211.687L983.026 216.528C988.648 217.979 994.655 218.687 1001.03 218.687V213.687V208.687C995.395 208.687 990.236 208.061 985.525 206.845L984.275 211.687ZM1001.03 213.687V218.687C1006.28 218.687 1010.51 218.463 1013.09 217.761L1011.78 212.937L1010.46 208.113C1009.37 208.41 1006.44 208.687 1001.03 208.687V213.687ZM1011.78 212.937L1013.48 217.636C1015.01 217.082 1016.58 216.165 1017.77 214.651C1019 213.079 1019.53 211.245 1019.53 209.437H1014.53H1009.53C1009.53 209.393 1009.53 209.252 1009.6 209.054C1009.66 208.849 1009.77 208.647 1009.91 208.473C1010.18 208.126 1010.38 208.125 1010.07 208.238L1011.78 212.937ZM1014.53 209.437H1019.53C1019.53 207.393 1018.9 205.341 1017.41 203.644C1016 202.031 1014.16 201.132 1012.4 200.629L1011.03 205.437L1009.65 210.244C1010.22 210.408 1010.13 210.509 1009.89 210.229C1009.76 210.084 1009.65 209.902 1009.59 209.714C1009.52 209.534 1009.53 209.426 1009.53 209.437H1014.53ZM1011.03 205.437L1012.5 200.658C1010.03 199.9 1006.03 199.023 1000.7 198.022L999.775 202.937L998.854 207.851C1004.19 208.851 1007.69 209.641 1009.55 210.216L1011.03 205.437ZM999.775 202.937L1000.73 198.029L982.73 194.529L981.775 199.437L980.821 204.345L998.821 207.845L999.775 202.937ZM981.775 199.437L982.756 194.534C975.445 193.072 968.301 191.204 961.323 188.932L959.775 193.687L958.227 198.441C965.583 200.836 973.106 202.802 980.795 204.34L981.775 199.437ZM959.775 193.687L961.457 188.978C955.104 186.709 949.949 183.437 945.872 179.214L942.275 182.687L938.678 186.16C943.935 191.604 950.447 195.664 958.094 198.396L959.775 193.687ZM942.275 182.687L945.935 179.28C942.506 175.597 940.525 170.351 940.525 162.937H935.525H930.525C930.525 172.19 933.045 180.11 938.616 186.094L942.275 182.687ZM935.525 162.937H940.525C940.525 153.407 944.57 146.127 953.201 140.661L950.525 136.437L947.85 132.213C936.48 139.414 930.525 149.8 930.525 162.937H935.525ZM950.525 136.437L953.169 140.681C962.2 135.055 975.784 131.937 994.525 131.937V126.937V121.937C974.934 121.937 959.185 125.152 947.882 132.193L950.525 136.437ZM994.525 126.937V131.937C1005.21 131.937 1014.62 132.99 1022.81 135.038L1024.03 130.187L1025.24 125.336C1016.1 123.051 1005.84 121.937 994.525 121.937V126.937ZM1024.03 130.187L1022.83 135.043C1031.17 137.088 1037.4 140.067 1041.81 143.768L1045.03 139.937L1048.24 136.106C1042.32 131.14 1034.55 127.619 1025.22 125.331L1024.03 130.187ZM1045.03 139.937L1041.89 143.829C1045.94 147.099 1047.78 150.947 1047.78 155.687H1052.78H1057.78C1057.78 147.76 1054.44 141.108 1048.16 136.045L1045.03 139.937ZM1052.78 155.687L1047.78 155.809C1047.92 161.632 1046.38 165.78 1043.6 168.802L1047.28 172.187L1050.96 175.572C1055.84 170.26 1057.97 163.409 1057.77 155.565L1052.78 155.687ZM1047.28 172.187L1043.6 168.802C1040.74 171.904 1037.26 173.437 1032.78 173.437V178.437V183.437C1039.96 183.437 1046.14 180.803 1050.96 175.572L1047.28 172.187ZM1032.78 178.437V173.437C1029.01 173.437 1025.14 172.985 1021.15 172.065L1020.03 176.937L1018.9 181.809C1023.58 182.888 1028.21 183.437 1032.78 183.437V178.437ZM1020.03 176.937L1021.37 172.122C1017.13 170.932 1012.47 169.748 1007.41 168.568L1006.28 173.437L1005.14 178.306C1010.08 179.459 1014.59 180.608 1018.68 181.752L1020.03 176.937ZM1006.28 173.437L1007.61 168.617C1002.29 167.152 996.294 166.363 989.657 166.189L989.525 171.187L989.394 176.185C995.423 176.344 1000.59 177.055 1004.95 178.257L1006.28 173.437ZM989.525 171.187L989.895 166.201C985.078 165.844 980.746 166.072 977.115 167.14L978.525 171.937L979.936 176.734C981.971 176.135 984.973 175.863 989.156 176.173L989.525 171.187ZM978.525 171.937L977.115 167.14C975.3 167.674 973.411 168.509 971.911 169.921C970.268 171.468 969.275 173.55 969.275 175.937H974.275H979.275C979.275 176.141 979.232 176.415 979.105 176.697C978.982 176.974 978.833 177.138 978.765 177.203C978.707 177.258 978.736 177.212 978.937 177.11C979.137 177.008 979.458 176.874 979.936 176.734L978.525 171.937ZM974.275 175.937H969.275C969.275 178.552 970.455 180.751 972.287 182.309C973.947 183.72 976.032 184.53 978.063 185.038L979.275 180.187L980.488 175.336C979.874 175.183 979.436 175.026 979.14 174.893C978.84 174.758 978.745 174.674 978.764 174.69C978.794 174.715 978.945 174.856 979.082 175.135C979.224 175.427 979.275 175.718 979.275 175.937H974.275ZM979.275 180.187L978.295 185.09C981.689 185.769 986.738 186.694 993.414 187.862L994.275 182.937L995.137 178.012C988.48 176.847 983.528 175.938 980.256 175.284L979.275 180.187ZM994.275 182.937L993.375 187.855L1011.12 191.105L1012.03 186.187L1012.93 181.269L995.176 178.019L994.275 182.937ZM1012.03 186.187L1011.19 191.117C1021.82 192.915 1029.94 195.16 1035.73 197.751L1037.78 193.187L1039.82 188.623C1032.94 185.547 1023.9 183.125 1012.86 181.257L1012.03 186.187ZM1037.78 193.187L1035.88 197.813C1041.63 200.171 1045.31 203.295 1047.46 206.965L1051.78 204.437L1056.09 201.908C1052.57 195.912 1046.92 191.536 1039.67 188.561L1037.78 193.187ZM1051.78 204.437L1047.46 206.965C1049.67 210.734 1051.03 216.401 1051.03 224.437H1056.03H1061.03C1061.03 215.472 1059.55 207.806 1056.09 201.908L1051.78 204.437ZM1056.03 224.437H1051.03C1051.03 232.221 1048.78 238.438 1044.49 243.424L1048.28 246.687L1052.06 249.949C1058.1 242.936 1061.03 234.319 1061.03 224.437H1056.03ZM1048.28 246.687L1044.48 243.433C1040.21 248.41 1034.09 252.301 1025.77 254.918L1027.28 259.687L1028.78 264.456C1038.46 261.406 1046.34 256.63 1052.07 249.941L1048.28 246.687ZM1027.28 259.687L1025.77 254.918C1017.36 257.567 1007.55 258.937 996.275 258.937V263.937V268.937C1008.34 268.937 1019.19 267.474 1028.78 264.456L1027.28 259.687ZM1109.22 255.437L1106.74 259.778L1106.76 259.791L1106.78 259.803L1109.22 255.437ZM1092.72 238.437L1088.31 240.79L1088.32 240.81L1088.33 240.831L1092.72 238.437ZM1086.72 168.187H1091.72V162.466L1086.05 163.232L1086.72 168.187ZM1077.47 169.437L1078.13 174.393L1078.14 174.392L1077.47 169.437ZM1064.22 164.187L1060.54 167.572V167.572L1064.22 164.187ZM1064.22 132.937L1067.83 136.396L1067.86 136.36L1067.9 136.322L1064.22 132.937ZM1077.47 127.687L1078.14 122.732L1078.13 122.731L1077.47 127.687ZM1086.72 128.937L1086.05 133.892L1091.8 134.669L1091.72 128.863L1086.72 128.937ZM1086.47 111.937L1091.47 111.863L1091.47 111.838L1091.47 111.812L1086.47 111.937ZM1092.22 96.1868L1095.68 99.7968L1095.71 99.76L1095.75 99.7224L1092.22 96.1868ZM1127.47 96.1868L1124 99.7937L1124.04 99.8305L1124.08 99.8665L1127.47 96.1868ZM1133.22 111.937L1128.22 111.687L1128.22 111.738L1128.22 111.79L1133.22 111.937ZM1132.72 128.937L1127.72 128.79L1127.55 134.663L1133.37 133.894L1132.72 128.937ZM1145.97 127.187L1146.62 132.144L1146.66 132.139L1146.7 132.133L1145.97 127.187ZM1166.47 132.187L1162.93 135.722L1162.96 135.755L1163 135.786L1166.47 132.187ZM1146.72 169.937L1147.38 164.982L1147.36 164.978L1147.34 164.975L1146.72 169.937ZM1132.72 168.187L1133.34 163.225L1127.72 162.523V168.187H1132.72ZM1134.97 211.437L1131.1 214.603L1131.17 214.694L1131.25 214.782L1134.97 211.437ZM1140.47 212.937L1139.18 208.106L1139.09 208.13L1139 208.158L1140.47 212.937ZM1148.22 208.687L1145.18 204.715L1145.12 204.76L1145.06 204.806L1148.22 208.687ZM1173.97 212.437L1169.97 215.437V215.437L1173.97 212.437ZM1173.47 245.187L1169.5 242.145L1169.49 242.155L1169.48 242.165L1173.47 245.187ZM1157.72 256.937L1155.71 252.359V252.359L1157.72 256.937ZM1133.22 261.437V256.437C1125.17 256.437 1118.02 254.624 1111.65 251.071L1109.22 255.437L1106.78 259.803C1114.75 264.25 1123.6 266.437 1133.22 266.437V261.437ZM1109.22 255.437L1111.7 251.096C1105.53 247.572 1100.68 242.593 1097.11 236.043L1092.72 238.437L1088.33 240.831C1092.75 248.947 1098.9 255.301 1106.74 259.778L1109.22 255.437ZM1092.72 238.437L1097.13 236.084C1093.58 229.426 1091.72 221.511 1091.72 212.187H1086.72H1081.72C1081.72 222.863 1083.86 232.448 1088.31 240.79L1092.72 238.437ZM1086.72 212.187H1091.72V168.187H1086.72H1081.72V212.187H1086.72ZM1086.72 168.187L1086.05 163.232L1076.8 164.482L1077.47 169.437L1078.14 174.392L1087.39 173.142L1086.72 168.187ZM1077.47 169.437L1076.81 164.481C1073.64 164.903 1070.78 163.939 1067.9 160.802L1064.22 164.187L1060.54 167.572C1065.32 172.768 1071.29 175.304 1078.13 174.393L1077.47 169.437ZM1064.22 164.187L1067.9 160.802C1065.02 157.67 1063.47 153.677 1063.47 148.437H1058.47H1053.47C1053.47 155.864 1055.75 162.371 1060.54 167.572L1064.22 164.187ZM1058.47 148.437H1063.47C1063.47 143.194 1065.01 139.331 1067.83 136.396L1064.22 132.937L1060.61 129.477C1055.75 134.543 1053.47 141.013 1053.47 148.437H1058.47ZM1064.22 132.937L1067.9 136.322C1070.78 133.185 1073.64 132.221 1076.81 132.643L1077.47 127.687L1078.13 122.731C1071.29 121.82 1065.32 124.355 1060.54 129.552L1064.22 132.937ZM1077.47 127.687L1076.8 132.642L1086.05 133.892L1086.72 128.937L1087.39 123.982L1078.14 122.732L1077.47 127.687ZM1086.72 128.937L1091.72 128.863L1091.47 111.863L1086.47 111.937L1081.47 112.01L1081.72 129.01L1086.72 128.937ZM1086.47 111.937L1091.47 111.812C1091.33 106.24 1092.9 102.461 1095.68 99.7968L1092.22 96.1868L1088.76 92.5769C1083.54 97.5795 1081.27 104.3 1081.47 112.062L1086.47 111.937ZM1092.22 96.1868L1095.75 99.7224C1098.52 96.9543 1102.89 95.1868 1109.72 95.1868V90.1868V85.1868C1101.21 85.1868 1093.91 87.4194 1088.68 92.6513L1092.22 96.1868ZM1109.72 90.1868V95.1868C1116.53 95.1868 1121.04 96.9491 1124 99.7937L1127.47 96.1868L1130.93 92.5799C1125.56 87.4246 1118.24 85.1868 1109.72 85.1868V90.1868ZM1127.47 96.1868L1124.08 99.8665C1126.95 102.51 1128.5 106.21 1128.22 111.687L1133.22 111.937L1138.21 112.187C1138.6 104.331 1136.31 97.5303 1130.85 92.5072L1127.47 96.1868ZM1133.22 111.937L1128.22 111.79L1127.72 128.79L1132.72 128.937L1137.71 129.084L1138.21 112.084L1133.22 111.937ZM1132.72 128.937L1133.37 133.894L1146.62 132.144L1145.97 127.187L1145.31 122.23L1132.06 123.98L1132.72 128.937ZM1145.97 127.187L1146.7 132.133C1154.77 130.937 1159.77 132.563 1162.93 135.722L1166.47 132.187L1170 128.651C1163.83 122.477 1155.16 120.77 1145.23 122.241L1145.97 127.187ZM1166.47 132.187L1163 135.786C1166.71 139.369 1168.47 143.497 1168.47 148.437H1173.47H1178.47C1178.47 140.71 1175.56 134.005 1169.94 128.588L1166.47 132.187ZM1173.47 148.437H1168.47C1168.47 153.383 1166.7 157.628 1162.93 161.401L1166.47 164.937L1170 168.472C1175.56 162.912 1178.47 156.157 1178.47 148.437H1173.47ZM1166.47 164.937L1162.93 161.401C1159.91 164.422 1155.12 166.023 1147.38 164.982L1146.72 169.937L1146.05 174.892C1155.64 176.184 1164.02 174.452 1170 168.472L1166.47 164.937ZM1146.72 169.937L1147.34 164.975L1133.34 163.225L1132.72 168.187L1132.1 173.148L1146.1 174.898L1146.72 169.937ZM1132.72 168.187H1127.72V205.437H1132.72H1137.72V168.187H1132.72ZM1132.72 205.437H1127.72C1127.72 208.868 1128.94 211.965 1131.1 214.603L1134.97 211.437L1138.84 208.271C1137.99 207.242 1137.72 206.339 1137.72 205.437H1132.72ZM1134.97 211.437L1131.25 214.782C1132.52 216.198 1134.15 217.341 1136.15 217.886C1138.15 218.43 1140.12 218.273 1141.94 217.716L1140.47 212.937L1139 208.158C1138.81 208.215 1138.72 208.222 1138.7 208.222C1138.68 208.223 1138.72 208.221 1138.78 208.238C1138.85 208.255 1138.88 208.278 1138.88 208.276C1138.87 208.271 1138.8 208.225 1138.68 208.092L1134.97 211.437ZM1140.47 212.937L1141.76 217.768C1145.12 216.87 1148.33 215.04 1151.37 212.567L1148.22 208.687L1145.06 204.806C1142.77 206.667 1140.81 207.67 1139.18 208.106L1140.47 212.937ZM1148.22 208.687L1151.25 212.659C1153.04 211.292 1155.49 210.437 1158.97 210.437V205.437V200.437C1153.78 200.437 1149.06 201.748 1145.18 204.715L1148.22 208.687ZM1158.97 205.437V210.437C1164.1 210.437 1167.53 212.186 1169.97 215.437L1173.97 212.437L1177.97 209.437C1173.41 203.354 1166.83 200.437 1158.97 200.437V205.437ZM1173.97 212.437L1169.97 215.437C1172.71 219.096 1174.22 223.743 1174.22 229.687H1179.22H1184.22C1184.22 221.964 1182.22 215.111 1177.97 209.437L1173.97 212.437ZM1179.22 229.687H1174.22C1174.22 233.73 1172.79 237.854 1169.5 242.145L1173.47 245.187L1177.43 248.229C1181.81 242.52 1184.22 236.31 1184.22 229.687H1179.22ZM1173.47 245.187L1169.48 242.165C1166.44 246.181 1161.94 249.623 1155.71 252.359L1157.72 256.937L1159.73 261.515C1167.16 258.251 1173.16 253.86 1177.45 248.209L1173.47 245.187ZM1157.72 256.937L1155.71 252.359C1149.65 255.016 1142.21 256.437 1133.22 256.437V261.437V266.437C1143.23 266.437 1152.11 264.858 1159.73 261.515L1157.72 256.937ZM1201.86 247.437L1205.7 244.243V244.243L1201.86 247.437ZM1190.61 210.187L1185.61 210.208L1185.61 210.224L1185.61 210.239L1190.61 210.187ZM1190.36 152.437H1185.36V152.448V152.458L1190.36 152.437ZM1196.86 135.687L1200.25 139.361L1200.25 139.356L1196.86 135.687ZM1232.86 135.687L1229.46 139.356L1229.5 139.39L1229.53 139.424L1232.86 135.687ZM1264.11 218.187L1268.62 220.336L1268.64 220.296L1268.66 220.256L1264.11 218.187ZM1273.36 136.187L1276.82 139.788L1276.86 139.756L1276.89 139.722L1273.36 136.187ZM1308.11 136.187L1304.37 139.509L1304.43 139.582L1304.5 139.652L1308.11 136.187ZM1308.86 253.687L1304.87 250.665L1304.86 250.676L1304.86 250.687L1308.86 253.687ZM1273.11 253.687L1269.38 257.025L1269.44 257.092L1269.51 257.158L1273.11 253.687ZM1266.61 230.187H1271.61V225.187H1266.61V230.187ZM1262.11 230.187V225.187H1257.11V230.187H1262.11ZM1253.36 252.687L1249.98 248.997L1249.95 249.021L1249.93 249.046L1253.36 252.687ZM1230.36 260.687V255.687C1220.15 255.687 1212.07 251.911 1205.7 244.243L1201.86 247.437L1198.01 250.631C1206.31 260.629 1217.23 265.687 1230.36 265.687V260.687ZM1201.86 247.437L1205.7 244.243C1199.34 236.585 1195.76 225.433 1195.61 210.135L1190.61 210.187L1185.61 210.239C1185.78 226.941 1189.7 240.622 1198.01 250.631L1201.86 247.437ZM1190.61 210.187L1195.61 210.165L1195.36 152.415L1190.36 152.437L1185.36 152.458L1185.61 210.208L1190.61 210.187ZM1190.36 152.437H1195.36C1195.36 146.341 1197.16 142.215 1200.25 139.361L1196.86 135.687L1193.46 132.013C1187.89 137.159 1185.36 144.199 1185.36 152.437H1190.36ZM1196.86 135.687L1200.25 139.356C1203.61 136.245 1208.37 134.437 1215.11 134.437V129.437V124.437C1206.51 124.437 1199.1 126.796 1193.46 132.018L1196.86 135.687ZM1215.11 129.437V134.437C1221.44 134.437 1226.06 136.207 1229.46 139.356L1232.86 135.687L1236.25 132.018C1230.65 126.833 1223.44 124.437 1215.11 124.437V129.437ZM1232.86 135.687L1229.53 139.424C1232.76 142.294 1234.61 146.401 1234.61 152.437H1239.61H1244.61C1244.61 144.139 1241.95 137.08 1236.18 131.95L1232.86 135.687ZM1239.61 152.437H1234.61V204.687H1239.61H1244.61V152.437H1239.61ZM1239.61 204.687H1234.61C1234.61 211.457 1235.91 217.456 1239.36 221.841C1242.99 226.454 1248.31 228.437 1254.36 228.437V223.437V218.437C1250.57 218.437 1248.51 217.295 1247.22 215.658C1245.76 213.793 1244.61 210.417 1244.61 204.687H1239.61ZM1254.36 223.437V228.437C1257.35 228.437 1260.24 227.897 1262.79 226.527C1265.4 225.121 1267.35 222.995 1268.62 220.336L1264.11 218.187L1259.59 216.037C1259.19 216.879 1258.69 217.377 1258.05 217.722C1257.34 218.102 1256.19 218.437 1254.36 218.437V223.437ZM1264.11 218.187L1268.66 220.256C1270.71 215.731 1271.61 210.297 1271.61 204.187H1266.61H1261.61C1261.61 209.41 1260.83 213.309 1259.55 216.118L1264.11 218.187ZM1266.61 204.187H1271.61V152.437H1266.61H1261.61V204.187H1266.61ZM1266.61 152.437H1271.61C1271.61 147.234 1273.35 143.137 1276.82 139.788L1273.36 136.187L1269.89 132.585C1264.36 137.903 1261.61 144.64 1261.61 152.437H1266.61ZM1273.36 136.187L1276.89 139.722C1280.33 136.282 1284.83 134.437 1290.86 134.437V129.437V124.437C1282.55 124.437 1275.38 127.092 1269.82 132.651L1273.36 136.187ZM1290.86 129.437V134.437C1297.31 134.437 1301.54 136.329 1304.37 139.509L1308.11 136.187L1311.84 132.865C1306.67 127.044 1299.41 124.437 1290.86 124.437V129.437ZM1308.11 136.187L1304.5 139.652C1307.7 142.974 1309.36 147.114 1309.36 152.437H1314.36H1319.36C1319.36 144.76 1316.85 138.066 1311.71 132.721L1308.11 136.187ZM1314.36 152.437H1309.36V234.437H1314.36H1319.36V152.437H1314.36ZM1314.36 234.437H1309.36C1309.36 241.693 1307.7 246.942 1304.87 250.665L1308.86 253.687L1312.84 256.709C1317.35 250.765 1319.36 243.181 1319.36 234.437H1314.36ZM1308.86 253.687L1304.86 250.687C1302.62 253.665 1298.66 255.687 1291.61 255.687V260.687V265.687C1300.55 265.687 1308.09 263.042 1312.86 256.687L1308.86 253.687ZM1291.61 260.687V255.687C1284.83 255.687 1280.07 253.707 1276.7 250.216L1273.11 253.687L1269.51 257.158C1275.14 263 1282.72 265.687 1291.61 265.687V260.687ZM1273.11 253.687L1276.83 250.349C1273.5 246.634 1271.61 241.504 1271.61 234.437H1266.61H1261.61C1261.61 243.37 1264.05 251.073 1269.38 257.025L1273.11 253.687ZM1266.61 234.437H1271.61V230.187H1266.61H1261.61V234.437H1266.61ZM1266.61 230.187V225.187H1262.11V230.187V235.187H1266.61V230.187ZM1262.11 230.187H1257.11C1257.11 238.788 1254.55 244.817 1249.98 248.997L1253.36 252.687L1256.73 256.377C1263.82 249.89 1267.11 240.919 1267.11 230.187H1262.11ZM1253.36 252.687L1249.93 249.046C1245.4 253.307 1239.07 255.687 1230.36 255.687V260.687V265.687C1240.97 265.687 1249.98 262.733 1256.78 256.328L1253.36 252.687ZM1337.57 147.437L1341.76 150.168L1341.77 150.154L1341.77 150.141L1337.57 147.437ZM1391.07 134.937L1388.29 139.097L1388.33 139.118L1388.36 139.138L1391.07 134.937ZM1403.07 148.687L1398.57 150.871L1398.61 150.949L1398.65 151.026L1403.07 148.687ZM1409.57 168.437L1404.65 169.312L1405.66 175.01L1411.15 173.18L1409.57 168.437ZM1410.32 168.187L1411.9 172.93L1415.32 171.791V168.187H1410.32ZM1416.32 75.1868L1412.53 71.9221L1412.53 71.9275L1412.52 71.9329L1416.32 75.1868ZM1451.32 75.1868L1447.33 78.2087L1447.39 78.2858L1447.45 78.3605L1451.32 75.1868ZM1458.32 221.187L1453.39 222.036L1453.41 222.136L1453.43 222.234L1458.32 221.187ZM1460.57 235.187L1465.55 234.793L1465.55 234.724L1465.54 234.654L1460.57 235.187ZM1456.57 251.687L1452.43 248.879L1452.42 248.896L1452.41 248.913L1456.57 251.687ZM1440.32 260.437L1441.13 265.371L1441.14 265.368L1441.16 265.366L1440.32 260.437ZM1417.57 255.187L1413.92 258.603L1413.95 258.634L1413.98 258.664L1417.57 255.187ZM1410.32 222.937H1415.32V217.937H1410.32V222.937ZM1405.57 222.937V217.937H1400.57V222.937H1405.57ZM1396.32 250.937L1392.69 247.496L1392.67 247.52L1392.64 247.545L1396.32 250.937ZM1372.82 202.937L1369.72 206.861V206.861L1372.82 202.937ZM1407.07 179.937L1403.87 183.778L1403.98 183.874L1404.1 183.962L1407.07 179.937ZM1372.82 179.937L1375.78 183.962L1375.85 183.913L1375.92 183.861L1372.82 179.937ZM1371.82 260.687V255.687C1358.07 255.687 1348.36 250.737 1341.83 241.128C1335.07 231.172 1331.32 215.611 1331.32 193.687H1326.32H1321.32C1321.32 216.43 1325.15 234.368 1333.56 246.746C1342.2 259.47 1355.23 265.687 1371.82 265.687V260.687ZM1326.32 193.687H1331.32C1331.32 174.944 1334.96 160.587 1341.76 150.168L1337.57 147.437L1333.38 144.706C1325.18 157.286 1321.32 173.763 1321.32 193.687H1326.32ZM1337.57 147.437L1341.77 150.141C1348.27 140.039 1357.85 134.937 1371.32 134.937V129.937V124.937C1354.78 124.937 1341.87 131.501 1333.36 144.733L1337.57 147.437ZM1371.32 129.937V134.937C1378.84 134.937 1384.36 136.476 1388.29 139.097L1391.07 134.937L1393.84 130.777C1387.77 126.731 1380.13 124.937 1371.32 124.937V129.937ZM1391.07 134.937L1388.36 139.138C1392.71 141.948 1396.11 145.814 1398.57 150.871L1403.07 148.687L1407.57 146.502C1404.36 139.893 1399.76 134.592 1393.78 130.735L1391.07 134.937ZM1403.07 148.687L1398.65 151.026C1401.37 156.157 1403.39 162.23 1404.65 169.312L1409.57 168.437L1414.49 167.562C1413.08 159.644 1410.77 152.55 1407.49 146.347L1403.07 148.687ZM1409.57 168.437L1411.15 173.18L1411.9 172.93L1410.32 168.187L1408.74 163.443L1407.99 163.693L1409.57 168.437ZM1410.32 168.187H1415.32V92.4368H1410.32H1405.32V168.187H1410.32ZM1410.32 92.4368H1415.32C1415.32 86.6542 1416.98 82.0984 1420.11 78.4408L1416.32 75.1868L1412.52 71.9329C1407.66 77.6086 1405.32 84.5527 1405.32 92.4368H1410.32ZM1416.32 75.1868L1420.11 78.4515C1423.11 74.9664 1427.58 72.9368 1434.32 72.9368V67.9368V62.9368C1425.39 62.9368 1417.86 65.7406 1412.53 71.9221L1416.32 75.1868ZM1434.32 67.9368V72.9368C1440.88 72.9368 1444.86 74.9441 1447.33 78.2087L1451.32 75.1868L1455.3 72.1649C1450.45 65.7629 1443.09 62.9368 1434.32 62.9368V67.9368ZM1451.32 75.1868L1447.45 78.3605C1450.42 81.9727 1452.07 86.7021 1452.07 92.9368H1457.07H1462.07C1462.07 84.8382 1459.88 77.7343 1455.18 72.0131L1451.32 75.1868ZM1457.07 92.9368H1452.07V205.437H1457.07H1462.07V92.9368H1457.07ZM1457.07 205.437H1452.07C1452.07 211.345 1452.5 216.883 1453.39 222.036L1458.32 221.187L1463.25 220.337C1462.47 215.824 1462.07 210.862 1462.07 205.437H1457.07ZM1458.32 221.187L1453.43 222.234C1454.39 226.734 1455.12 231.229 1455.6 235.719L1460.57 235.187L1465.54 234.654C1465.02 229.812 1464.24 224.973 1463.21 220.139L1458.32 221.187ZM1460.57 235.187L1455.58 235.58C1456.01 240.933 1454.88 245.271 1452.43 248.879L1456.57 251.687L1460.71 254.494C1464.59 248.769 1466.13 242.108 1465.55 234.793L1460.57 235.187ZM1456.57 251.687L1452.41 248.913C1450.47 251.822 1446.6 254.296 1439.48 255.508L1440.32 260.437L1441.16 265.366C1449.71 263.911 1456.67 260.552 1460.73 254.46L1456.57 251.687ZM1440.32 260.437L1439.51 255.503C1430.21 257.027 1424.58 255.242 1421.16 251.71L1417.57 255.187L1413.98 258.664C1420.56 265.465 1430.09 267.18 1441.13 265.371L1440.32 260.437ZM1417.57 255.187L1421.22 251.771C1417.57 247.867 1415.32 241.637 1415.32 232.187H1410.32H1405.32C1405.32 243.07 1407.9 252.173 1413.92 258.603L1417.57 255.187ZM1410.32 232.187H1415.32V222.937H1410.32H1405.32V232.187H1410.32ZM1410.32 222.937V217.937H1405.57V222.937V227.937H1410.32V222.937ZM1405.57 222.937H1400.57C1400.57 234.29 1397.7 242.215 1392.69 247.496L1396.32 250.937L1399.95 254.378C1407.27 246.658 1410.57 235.917 1410.57 222.937H1405.57ZM1396.32 250.937L1392.64 247.545C1387.75 252.846 1381.01 255.687 1371.82 255.687V260.687V265.687C1383.29 265.687 1392.88 262.028 1399.99 254.328L1396.32 250.937ZM1368.07 191.437H1363.07C1363.07 197.666 1365.03 203.157 1369.72 206.861L1372.82 202.937L1375.92 199.012C1374.28 197.717 1373.07 195.541 1373.07 191.437H1368.07ZM1372.82 202.937L1369.72 206.861C1374.31 210.482 1381.49 211.687 1389.82 211.687V206.687V201.687C1381.81 201.687 1377.66 200.391 1375.92 199.012L1372.82 202.937ZM1389.82 206.687V211.687C1398.28 211.687 1405.57 210.491 1410.17 206.861L1407.07 202.937L1403.97 199.012C1402.23 200.383 1398.02 201.687 1389.82 201.687V206.687ZM1407.07 202.937L1410.17 206.861C1414.86 203.157 1416.82 197.666 1416.82 191.437H1411.82H1406.82C1406.82 195.541 1405.61 197.717 1403.97 199.012L1407.07 202.937ZM1411.82 191.437H1416.82C1416.82 185.126 1414.9 179.499 1410.03 175.912L1407.07 179.937L1404.1 183.962C1405.57 185.041 1406.82 187.081 1406.82 191.437H1411.82ZM1407.07 179.937L1410.27 176.096C1407.93 174.145 1404.91 172.962 1401.65 172.242C1398.34 171.513 1394.45 171.187 1390.07 171.187V176.187V181.187C1394.02 181.187 1397.13 181.486 1399.49 182.007C1401.89 182.537 1403.21 183.228 1403.87 183.778L1407.07 179.937ZM1390.07 176.187V171.187C1381.6 171.187 1374.32 172.383 1369.72 176.012L1372.82 179.937L1375.92 183.861C1377.65 182.491 1381.87 181.187 1390.07 181.187V176.187ZM1372.82 179.937L1369.85 175.912C1364.98 179.499 1363.07 185.126 1363.07 191.437H1368.07H1373.07C1373.07 187.081 1374.32 185.041 1375.78 183.962L1372.82 179.937ZM1478.08 83.6868L1481.62 87.2224V87.2224L1478.08 83.6868ZM1515.08 83.4368L1511.41 86.8282L1511.44 86.8656L1511.48 86.9024L1515.08 83.4368ZM1515.08 117.687L1511.48 114.221L1511.48 114.224L1515.08 117.687ZM1477.83 117.687L1474.23 121.152L1474.3 121.223L1474.37 121.291L1477.83 117.687ZM1479.08 254.187L1475.34 257.5L1479.08 254.187ZM1479.08 135.437L1475.4 132.052V132.052L1479.08 135.437ZM1514.08 135.437L1510.4 138.822L1510.44 138.861L1510.48 138.899L1514.08 135.437ZM1513.83 254.187L1510.23 250.721L1510.19 250.758L1510.16 250.795L1513.83 254.187ZM1471.58 100.937H1476.58C1476.58 94.8538 1478.38 90.4595 1481.62 87.2224L1478.08 83.6868L1474.55 80.1513C1469.12 85.5809 1466.58 92.6865 1466.58 100.937H1471.58ZM1478.08 83.6868L1481.62 87.2224C1484.97 83.8673 1489.75 81.9368 1496.58 81.9368V76.9368V71.9368C1487.75 71.9368 1480.19 74.5064 1474.55 80.1513L1478.08 83.6868ZM1496.58 76.9368V81.9368C1504.11 81.9368 1508.69 83.8858 1511.41 86.8282L1515.08 83.4368L1518.76 80.0454C1513.47 74.3212 1505.72 71.9368 1496.58 71.9368V76.9368ZM1515.08 83.4368L1511.48 86.9024C1514.58 90.1295 1516.33 94.5476 1516.33 100.687H1521.33H1526.33C1526.33 92.4927 1523.92 85.4108 1518.69 79.9713L1515.08 83.4368ZM1521.33 100.687H1516.33C1516.33 106.623 1514.6 110.972 1511.48 114.221L1515.08 117.687L1518.69 121.152C1523.9 115.735 1526.33 108.751 1526.33 100.687H1521.33ZM1515.08 117.687L1511.48 114.224C1508.77 117.042 1504.16 118.937 1496.58 118.937V123.937V128.937C1505.67 128.937 1513.39 126.665 1518.69 121.149L1515.08 117.687ZM1496.58 123.937V118.937C1489.23 118.937 1484.41 117.072 1481.3 114.083L1477.83 117.687L1474.37 121.291C1479.92 126.635 1487.6 128.937 1496.58 128.937V123.937ZM1477.83 117.687L1481.44 114.221C1478.29 110.949 1476.58 106.669 1476.58 100.937H1471.58H1466.58C1466.58 108.871 1469.04 115.758 1474.23 121.152L1477.83 117.687ZM1496.58 260.687V255.687C1489.65 255.687 1485.41 253.792 1482.83 250.874L1479.08 254.187L1475.34 257.5C1480.42 263.248 1487.85 265.687 1496.58 265.687V260.687ZM1479.08 254.187L1482.83 250.874C1479.9 247.569 1478.33 243.378 1478.33 237.937H1473.33H1468.33C1468.33 245.496 1470.59 252.138 1475.34 257.5L1479.08 254.187ZM1473.33 237.937H1478.33V152.437H1473.33H1468.33V237.937H1473.33ZM1473.33 152.437H1478.33C1478.33 146.178 1479.99 141.839 1482.76 138.822L1479.08 135.437L1475.4 132.052C1470.51 137.368 1468.33 144.362 1468.33 152.437H1473.33ZM1479.08 135.437L1482.76 138.822C1485.33 136.032 1489.59 134.187 1496.58 134.187V129.187V124.187C1487.9 124.187 1480.5 126.509 1475.4 132.052L1479.08 135.437ZM1496.58 129.187V134.187C1503.57 134.187 1507.84 136.032 1510.4 138.822L1514.08 135.437L1517.76 132.052C1512.66 126.509 1505.26 124.187 1496.58 124.187V129.187ZM1514.08 135.437L1510.48 138.899C1513.42 141.968 1515.08 146.142 1515.08 151.937H1520.08H1525.08C1525.08 144.065 1522.74 137.239 1517.69 131.974L1514.08 135.437ZM1520.08 151.937H1515.08V237.937H1520.08H1525.08V151.937H1520.08ZM1520.08 237.937H1515.08C1515.08 243.26 1513.42 247.399 1510.23 250.721L1513.83 254.187L1517.44 257.652C1522.58 252.308 1525.08 245.614 1525.08 237.937H1520.08ZM1513.83 254.187L1510.16 250.795C1507.35 253.84 1503.09 255.687 1496.58 255.687V260.687V265.687C1505.07 265.687 1512.32 263.2 1517.51 257.578L1513.83 254.187ZM1547.67 243.937L1544.11 247.447L1544.13 247.472L1544.16 247.498L1547.67 243.937ZM1538.42 160.437L1534.02 158.053V158.053L1538.42 160.437ZM1560.67 137.437L1563.18 141.764L1563.19 141.757L1563.2 141.75L1560.67 137.437ZM1630.17 137.437L1627.61 141.731L1627.64 141.748L1627.66 141.764L1630.17 137.437ZM1651.42 160.437L1646.9 162.581L1646.92 162.612L1646.93 162.642L1651.42 160.437ZM1642.67 243.937L1638.98 240.563L1638.98 240.565L1642.67 243.937ZM1567.92 201.437L1565.99 206.048L1566.05 206.075L1566.11 206.1L1567.92 201.437ZM1620.92 201.437L1622.72 206.1L1622.79 206.075L1622.85 206.048L1620.92 201.437ZM1620.92 179.937L1622.72 175.274V175.274L1620.92 179.937ZM1594.42 261.187V256.187C1575.97 256.187 1561.74 250.781 1551.18 240.376L1547.67 243.937L1544.16 247.498C1556.94 260.092 1573.87 266.187 1594.42 266.187V261.187ZM1547.67 243.937L1551.23 240.427C1540.9 229.946 1535.42 214.94 1535.42 194.687H1530.42H1525.42C1525.42 216.767 1531.44 234.594 1544.11 247.447L1547.67 243.937ZM1530.42 194.687H1535.42C1535.42 182.384 1537.94 171.811 1542.82 162.821L1538.42 160.437L1534.02 158.053C1528.23 168.729 1525.42 180.99 1525.42 194.687H1530.42ZM1538.42 160.437L1542.82 162.821C1547.72 153.78 1554.49 146.793 1563.18 141.764L1560.67 137.437L1558.16 133.11C1547.85 139.08 1539.79 147.426 1534.02 158.053L1538.42 160.437ZM1560.67 137.437L1563.2 141.75C1571.99 136.595 1582.34 133.937 1594.42 133.937V128.937V123.937C1580.83 123.937 1568.68 126.945 1558.14 133.123L1560.67 137.437ZM1594.42 128.937V133.937C1608.11 133.937 1619.08 136.644 1627.61 141.731L1630.17 137.437L1632.73 133.143C1622.26 126.896 1609.39 123.937 1594.42 123.937V128.937ZM1630.17 137.437L1627.66 141.764C1636.3 146.761 1642.67 153.67 1646.9 162.581L1651.42 160.437L1655.94 158.293C1650.83 147.537 1643.04 139.112 1632.68 133.11L1630.17 137.437ZM1651.42 160.437L1646.93 162.642C1651.37 171.673 1653.67 182.31 1653.67 194.687H1658.67H1663.67C1663.67 181.064 1661.14 168.867 1655.91 158.231L1651.42 160.437ZM1658.67 194.687H1653.67C1653.67 215.036 1648.55 230.093 1638.98 240.563L1642.67 243.937L1646.36 247.311C1658.12 234.447 1663.67 216.671 1663.67 194.687H1658.67ZM1642.67 243.937L1638.98 240.565C1629.75 250.672 1615.25 256.187 1594.42 256.187V261.187V266.187C1616.92 266.187 1634.59 260.201 1646.36 247.308L1642.67 243.937ZM1560.17 190.437H1555.17C1555.17 193.889 1556.05 197.142 1558.02 199.942C1559.97 202.713 1562.75 204.691 1565.99 206.048L1567.92 201.437L1569.85 196.826C1567.92 196.016 1566.83 195.077 1566.19 194.182C1565.58 193.315 1565.17 192.151 1565.17 190.437H1560.17ZM1567.92 201.437L1566.11 206.1C1572.22 208.465 1581.88 209.437 1594.42 209.437V204.437V199.437C1581.96 199.437 1573.95 198.409 1569.72 196.774L1567.92 201.437ZM1594.42 204.437V209.437C1606.96 209.437 1616.62 208.465 1622.72 206.1L1620.92 201.437L1619.11 196.774C1614.89 198.409 1606.88 199.437 1594.42 199.437V204.437ZM1620.92 201.437L1622.85 206.048C1626.09 204.691 1628.87 202.713 1630.82 199.942C1632.79 197.142 1633.67 193.889 1633.67 190.437H1628.67H1623.67C1623.67 192.151 1623.26 193.315 1622.65 194.182C1622.01 195.077 1620.92 196.016 1618.99 196.826L1620.92 201.437ZM1628.67 190.437H1633.67C1633.67 187.034 1632.77 183.827 1630.76 181.093C1628.76 178.396 1625.95 176.524 1622.72 175.274L1620.92 179.937L1619.11 184.6C1621.05 185.35 1622.12 186.228 1622.71 187.031C1623.27 187.797 1623.67 188.84 1623.67 190.437H1628.67ZM1620.92 179.937L1622.72 175.274C1616.62 172.909 1606.96 171.937 1594.42 171.937V176.937V181.937C1606.88 181.937 1614.89 182.965 1619.11 184.6L1620.92 179.937ZM1594.42 176.937V171.937C1581.88 171.937 1572.22 172.909 1566.11 175.274L1567.92 179.937L1569.72 184.6C1573.95 182.965 1581.96 181.937 1594.42 181.937V176.937ZM1567.92 179.937L1566.11 175.274C1562.89 176.524 1560.08 178.396 1558.08 181.093C1556.07 183.827 1555.17 187.034 1555.17 190.437H1560.17H1565.17C1565.17 188.84 1565.57 187.797 1566.13 187.031C1566.72 186.228 1567.79 185.35 1569.72 184.6L1567.92 179.937Z" fill="white" mask="url(#path-1-outside-1_131_6)"/>
</svg>
