<svg width="512" height="263" viewBox="0 0 512 263" fill="none" xmlns="http://www.w3.org/2000/svg">
<path d="M35.6998 257.6C23.5665 257.6 14.5831 253.983 8.74981 246.75C2.91647 239.517 -0.000194781 229.833 -0.000194781 217.7V54.6001C-0.000194781 36.8668 4.78314 23.8001 14.3498 15.4001C24.1498 7.00008 35.8165 2.80008 49.3498 2.80008C62.1831 2.80008 73.0331 7.00008 81.8998 15.4001C90.9998 23.8001 97.6498 37.1001 101.85 55.3001L129.15 173.95H138.25L165.55 55.3001C169.75 37.1001 176.4 23.8001 185.5 15.4001C194.833 7.00008 205.916 2.80008 218.75 2.80008C232.283 2.80008 243.833 7.00008 253.4 15.4001C263.2 23.8001 268.1 36.8668 268.1 54.6001V217.7C268.1 229.833 265.066 239.517 259 246.75C253.166 253.983 244.183 257.6 232.05 257.6C220.383 257.6 211.4 253.983 205.1 246.75C198.8 239.517 195.65 229.833 195.65 217.7V123.55C195.65 121.217 195.3 119.117 194.6 117.25C194.133 115.15 192.616 114.1 190.05 114.1C187.95 114.1 186.433 115.15 185.5 117.25C184.566 119.117 183.866 121.217 183.4 123.55L170.1 211.75C168.466 221.317 166.483 229.6 164.15 236.6C162.05 243.367 158.666 248.617 154 252.35C149.333 255.85 142.566 257.6 133.7 257.6C125.066 257.6 118.3 255.85 113.4 252.35C108.733 248.617 105.233 243.367 102.9 236.6C100.8 229.6 99.0498 221.317 97.6498 211.75L83.9998 123.55C83.7665 121.217 83.1831 119.117 82.2498 117.25C81.3165 115.15 79.6831 114.1 77.3498 114.1C75.0165 114.1 73.4998 115.15 72.7998 117.25C72.0998 119.117 71.7498 121.217 71.7498 123.55V217.7C71.7498 229.833 68.5998 239.517 62.2998 246.75C56.2331 253.983 47.3665 257.6 35.6998 257.6ZM297.527 184.1C306.16 172.667 315.727 162.867 326.227 154.7C336.727 146.3 348.394 138.133 361.227 130.2C355.394 123.667 348.977 117.833 341.977 112.7C335.21 107.567 328.327 102.317 321.327 96.9501C314.56 91.3501 308.027 84.8168 301.727 77.3501C295.66 69.6501 291.46 61.6001 289.127 53.2001C286.794 44.5667 286.794 36.2834 289.127 28.3501C291.694 20.4168 296.827 13.8834 304.527 8.75009C312.927 2.91675 321.444 0.816746 330.077 2.45009C338.71 3.85008 346.877 7.93342 354.577 14.7001C362.277 21.2334 368.927 29.5168 374.527 39.5501C379.66 48.4168 384.677 56.9334 389.577 65.1001C394.477 73.0334 399.26 80.3834 403.927 87.1501C410.227 81.0834 414.777 75.3668 417.577 70.0001C420.377 64.4001 422.827 58.3334 424.927 51.8001C427.26 45.2668 430.527 37.6834 434.727 29.0501C438.227 21.5834 443.01 15.6334 449.077 11.2001C455.377 6.53342 462.377 3.85008 470.077 3.15008C477.777 2.45009 485.36 4.43342 492.827 9.10008C500.294 13.5334 505.194 19.7168 507.527 27.6501C510.094 35.3501 510.21 43.6334 507.877 52.5001C505.777 61.3668 501.461 69.7668 494.927 77.7001C487.461 86.5668 478.36 94.5001 467.627 101.5C457.127 108.267 446.044 114.333 434.377 119.7C446.044 130.433 457.36 140.583 468.327 150.15C479.294 159.717 489.21 170.8 498.077 183.4C506.944 196 511.027 208.717 510.327 221.55C509.86 234.383 504.144 244.417 493.177 251.65C481.744 258.883 469.96 260.283 457.827 255.85C445.694 251.417 435.077 242.433 425.977 228.9C417.11 215.367 409.76 203.7 403.927 193.9C398.327 183.867 392.844 174.417 387.477 165.55C385.61 170.217 383.977 175.583 382.577 181.65C381.41 187.717 379.66 194.717 377.327 202.65C375.227 210.583 371.61 219.8 366.477 230.3C362.277 239.4 356.444 246.4 348.977 251.3C341.51 255.967 333.46 258.067 324.827 257.6C316.194 257.367 307.91 254.333 299.977 248.5C293.444 243.367 289.127 237.183 287.027 229.95C285.16 222.483 285.16 214.783 287.027 206.85C288.894 198.683 292.394 191.1 297.527 184.1Z" fill="#6CCCFF"/>
</svg>
